<svg width="63" height="28" viewBox="0 0 63 28" fill="none" xmlns="http://www.w3.org/2000/svg">
<path d="M27.8283 6.20377C27.7399 6.35498 27.6453 6.49863 27.5444 6.63472C27.4497 6.76325 27.3299 6.86531 27.1848 6.94092C27.1091 7.46259 27.046 7.98805 26.9955 8.51728C26.9513 9.04651 26.9009 9.57575 26.8441 10.105C26.7936 10.6342 26.7337 11.1635 26.6643 11.6927C26.6012 12.2144 26.5129 12.7323 26.3993 13.2464L26.4088 13.3825C26.4214 13.5337 26.4056 13.6773 26.3615 13.8134C26.3173 13.9495 26.2984 14.0969 26.3047 14.2557C26.2164 14.5203 26.1407 14.8152 26.0776 15.1403C26.0145 15.4578 25.9766 15.7602 25.964 16.0475C25.9009 16.1761 25.8473 16.3159 25.8031 16.4671C25.7653 16.6183 25.7243 16.7733 25.6801 16.9321C25.6423 17.0833 25.5981 17.2307 25.5476 17.3744C25.4972 17.5105 25.4309 17.6352 25.3489 17.7486C25.33 17.9225 25.2921 18.0851 25.2353 18.2363C25.1849 18.3951 25.1249 18.55 25.0555 18.7013C24.9924 18.8525 24.9294 18.9999 24.8663 19.1435C24.8095 19.2948 24.7685 19.4535 24.7433 19.6199C24.636 19.8164 24.5288 20.0054 24.4215 20.1869C24.3143 20.3759 24.2165 20.5725 24.1281 20.7766C24.0461 20.822 23.9736 20.8711 23.9105 20.924C23.8537 20.9845 23.7969 21.0374 23.7401 21.0828C23.6834 21.1357 23.6171 21.1811 23.5414 21.2189C23.472 21.2567 23.3869 21.2756 23.2859 21.2756C23.2607 21.2756 23.2354 21.2718 23.2102 21.2643C23.1913 21.2643 23.1692 21.2643 23.144 21.2643C23.0556 21.1811 22.9673 21.0979 22.879 21.0148C22.7907 20.9392 22.696 20.8711 22.5951 20.8106C22.5951 20.7653 22.5888 20.7275 22.5762 20.6972C22.5699 20.667 22.5636 20.6367 22.5572 20.6065C22.5509 20.5763 22.5478 20.546 22.5478 20.5158C22.5478 20.4855 22.5541 20.4477 22.5667 20.4024C22.5099 20.357 22.4437 20.2738 22.368 20.1529C22.2986 20.0395 22.2639 19.9412 22.2639 19.858C22.2639 19.7824 22.286 19.7446 22.3301 19.7446C22.3175 19.669 22.2954 19.5934 22.2639 19.5178C22.2386 19.4497 22.226 19.3779 22.226 19.3023C22.226 19.2494 22.2386 19.1927 22.2639 19.1322C22.1945 18.9356 22.1314 18.7315 22.0746 18.5198C22.0178 18.3157 21.98 18.104 21.9611 17.8847C21.898 17.7864 21.8475 17.673 21.8096 17.5445C21.7781 17.4084 21.7529 17.2685 21.7339 17.1249C21.715 16.9812 21.6992 16.8414 21.6866 16.7053C21.674 16.5616 21.6582 16.4293 21.6393 16.3084C21.633 16.263 21.6172 16.1912 21.592 16.0929C21.5668 15.987 21.5541 15.9152 21.5541 15.8774C21.5541 15.832 21.5604 15.798 21.5731 15.7753C21.592 15.7527 21.6078 15.7224 21.6204 15.6846C21.5447 15.3217 21.4816 14.955 21.4311 14.5846C21.387 14.2141 21.3428 13.8436 21.2986 13.4732C21.2608 13.1027 21.2135 12.736 21.1567 12.3731C21.1062 12.0027 21.0337 11.6398 20.939 11.2844V11.1824C20.939 10.9404 20.8602 10.7476 20.7024 10.604C20.734 10.4906 20.7498 10.3961 20.7498 10.3205C20.7498 10.2222 20.7371 10.1277 20.7119 10.0369C20.693 9.94621 20.6709 9.85549 20.6457 9.76476C20.6204 9.67404 20.6015 9.58331 20.5889 9.49258C20.5826 9.40186 20.5889 9.31113 20.6078 9.22041C20.5384 9.12968 20.4816 9.03139 20.4375 8.92555C20.3933 8.8197 20.3365 8.72897 20.2671 8.65337L20.2577 8.58533C20.2577 8.54752 20.2671 8.5135 20.2861 8.48326C20.2987 8.45302 20.305 8.41899 20.305 8.38119C20.305 8.32827 20.2955 8.28291 20.2766 8.2451C20.2514 8.2073 20.2261 8.17328 20.2009 8.14304C20.1694 8.11279 20.1441 8.08255 20.1252 8.05231C20.1 8.02207 20.0873 7.98805 20.0873 7.95024C20.0873 7.85952 20.1126 7.78769 20.163 7.73477C20.2135 7.68185 20.2703 7.63648 20.3334 7.59868C20.3965 7.55332 20.4564 7.50796 20.5132 7.46259C20.5763 7.41723 20.6173 7.35297 20.6362 7.2698C20.6867 7.28492 20.7371 7.29626 20.7876 7.30382C20.8381 7.30382 20.8886 7.31894 20.939 7.34919C20.9453 7.34163 20.9485 7.33028 20.9485 7.31516C20.9485 7.29248 20.917 7.27358 20.8539 7.25846C20.7971 7.23578 20.7592 7.20932 20.7403 7.17908C20.7908 7.16395 20.8286 7.15639 20.8539 7.15639C20.98 7.15639 21.0999 7.1942 21.2135 7.2698C21.3333 7.34541 21.4469 7.42479 21.5541 7.50796C21.5668 7.576 21.5699 7.64783 21.5636 7.72343C21.5573 7.79147 21.5762 7.85574 21.6204 7.91622C21.6141 7.95402 21.6109 7.98805 21.6109 8.01829C21.6172 8.04853 21.6204 8.07877 21.6204 8.10901C21.6204 8.14682 21.6141 8.18084 21.6015 8.21108C21.5951 8.23376 21.5794 8.2451 21.5541 8.2451C21.5983 8.33583 21.6267 8.44546 21.6393 8.57398C21.6582 8.70251 21.674 8.83482 21.6866 8.97091C21.7056 9.107 21.7276 9.23931 21.7529 9.36784C21.7781 9.49636 21.8254 9.60977 21.8948 9.70806C21.8822 9.75342 21.8727 9.79878 21.8664 9.84415C21.8664 9.88951 21.8664 9.93865 21.8664 9.99158C21.8664 10.2335 21.8917 10.4717 21.9421 10.706C21.9926 10.9404 22.0178 11.1786 22.0178 11.4205C22.0178 11.5642 21.9989 11.6965 21.9611 11.8174C21.9611 11.8855 21.98 11.9422 22.0178 11.9875C22.0557 12.0253 22.0809 12.0783 22.0935 12.1463C22.062 12.237 22.0462 12.324 22.0462 12.4071C22.0462 12.581 22.0746 12.7474 22.1314 12.9061C22.1882 13.0574 22.2166 13.2161 22.2166 13.3825C22.2166 13.4354 22.2103 13.4845 22.1976 13.5299C22.185 13.5752 22.1724 13.6168 22.1598 13.6546C22.2166 13.7227 22.245 13.8096 22.245 13.9155C22.2513 14.0213 22.2797 14.1083 22.3301 14.1763C22.3238 14.2141 22.3175 14.2519 22.3112 14.2897C22.3112 14.3275 22.2954 14.3578 22.2639 14.3804C22.2954 14.4334 22.3112 14.5052 22.3112 14.5959C22.3175 14.6791 22.3459 14.7282 22.3964 14.7433C22.3838 14.7811 22.3743 14.8152 22.368 14.8454C22.3617 14.8756 22.3585 14.9097 22.3585 14.9475C22.3585 15.0306 22.368 15.1062 22.3869 15.1743L22.4437 15.3784C22.4626 15.4465 22.4752 15.5183 22.4815 15.5939C22.4942 15.6695 22.4878 15.7527 22.4626 15.8434C22.4878 15.8888 22.5068 15.9417 22.5194 16.0022C22.5383 16.0626 22.5541 16.1269 22.5667 16.195C22.5793 16.2554 22.5983 16.3121 22.6235 16.3651C22.6487 16.4104 22.6866 16.4407 22.737 16.4558C22.7434 16.5012 22.7276 16.5238 22.6897 16.5238C22.6582 16.5238 22.6424 16.5427 22.6424 16.5805C22.6424 16.641 22.6613 16.7166 22.6992 16.8074C22.737 16.8905 22.7717 16.951 22.8033 16.9888C22.797 17.019 22.7938 17.0493 22.7938 17.0795V17.1816C22.7938 17.2874 22.8064 17.3971 22.8317 17.5105C22.8569 17.6163 22.879 17.7222 22.8979 17.828C22.9232 17.9414 22.9421 18.0511 22.9547 18.1569C22.9673 18.2627 22.961 18.361 22.9358 18.4518C22.9862 18.5576 23.0304 18.671 23.0683 18.792C23.1061 18.9129 23.166 19.015 23.2481 19.0982C23.2481 19.2267 23.2701 19.3477 23.3143 19.4611C23.3585 19.582 23.4152 19.6955 23.4846 19.8013C23.5477 19.8013 23.595 19.7748 23.6266 19.7219C23.6581 19.6766 23.6834 19.6236 23.7023 19.5631C23.7212 19.5027 23.7433 19.446 23.7685 19.393C23.7938 19.3401 23.8348 19.3099 23.8916 19.3023C23.8979 19.2267 23.9136 19.1624 23.9389 19.1095C23.9704 19.0642 23.9988 19.015 24.024 18.9621C24.0556 18.9092 24.0808 18.8525 24.0998 18.792C24.125 18.7315 24.1344 18.6559 24.1281 18.5652L24.2322 18.5311C24.2638 18.327 24.3111 18.1418 24.3742 17.9754C24.4436 17.8167 24.5193 17.6503 24.6013 17.4765V17.4198C24.6013 17.3441 24.6108 17.2799 24.6297 17.227C24.6486 17.174 24.6518 17.106 24.6392 17.0228C24.6833 17.0077 24.7149 16.9775 24.7338 16.9321C24.7527 16.8867 24.7685 16.8414 24.7811 16.796C24.7937 16.7431 24.8063 16.6939 24.819 16.6486C24.8379 16.5957 24.8663 16.5579 24.9041 16.5352V16.4444C24.8978 16.3764 24.901 16.3121 24.9136 16.2517C24.9325 16.1836 24.9294 16.1156 24.9041 16.0475C24.9546 16.0248 24.9924 15.987 25.0177 15.9341C25.0429 15.8812 25.0618 15.8245 25.0745 15.764C25.0934 15.7035 25.1029 15.6393 25.1029 15.5712C25.1092 15.5032 25.1123 15.4427 25.1123 15.3898C25.1565 15.3217 25.188 15.2423 25.2069 15.1516C25.2259 15.0533 25.2416 14.955 25.2543 14.8567C25.2669 14.7585 25.2827 14.664 25.3016 14.5732C25.3268 14.4825 25.3647 14.4031 25.4151 14.3351C25.4025 14.2973 25.3962 14.2632 25.3962 14.233V14.1309C25.3962 13.9873 25.4151 13.8588 25.453 13.7454C25.4908 13.6244 25.5255 13.4959 25.5571 13.3598C25.6391 13.0195 25.6959 12.6718 25.7274 12.3164C25.7653 11.9535 25.8189 11.5982 25.8883 11.2504C25.8946 11.2126 25.9072 11.1521 25.9262 11.0689C25.9451 10.9858 25.964 10.9026 25.9829 10.8194C26.0019 10.7287 26.0176 10.6493 26.0303 10.5813C26.0492 10.5057 26.0586 10.4565 26.0586 10.4339C26.0586 10.3734 26.046 10.3318 26.0208 10.3091C26.0019 10.2864 25.9924 10.2486 25.9924 10.1957C26.0303 10.1277 26.0555 10.0407 26.0681 9.93487C26.0807 9.82902 26.0902 9.7194 26.0965 9.60599C26.1028 9.48502 26.1028 9.37162 26.0965 9.26577C26.0965 9.15236 26.0965 9.05408 26.0965 8.97091C26.0965 8.88774 26.1123 8.7819 26.1438 8.65337C26.1754 8.52484 26.1974 8.41143 26.2101 8.31315C26.2416 8.05609 26.2605 7.80281 26.2668 7.55332C26.2794 7.29626 26.2921 7.03921 26.3047 6.78215C26.3488 6.75191 26.3804 6.71411 26.3993 6.66874C26.4182 6.61582 26.4277 6.5629 26.4277 6.50997C26.4277 6.42681 26.4182 6.34742 26.3993 6.27182C26.3867 6.19621 26.3804 6.11683 26.3804 6.03366C26.3804 5.99586 26.3835 5.95806 26.3899 5.92025C26.3962 5.87489 26.4119 5.83709 26.4372 5.80685C26.4309 5.75392 26.4246 5.701 26.4182 5.64808C26.4182 5.59515 26.4025 5.54979 26.3709 5.51199C26.4025 5.4137 26.4182 5.31542 26.4182 5.21713C26.4182 5.1264 26.4088 5.03568 26.3899 4.94495C26.3772 4.85423 26.3709 4.75972 26.3709 4.66143C26.3709 4.47242 26.4372 4.33633 26.5697 4.25317H26.7021C26.7652 4.25317 26.8283 4.24939 26.8914 4.24183C26.9545 4.23427 27.0207 4.21159 27.0901 4.17378C27.1721 4.27963 27.2573 4.39682 27.3456 4.52535C27.434 4.64631 27.5097 4.77862 27.5728 4.92227C27.6358 5.06592 27.6832 5.21335 27.7147 5.36456C27.7463 5.51577 27.7494 5.67454 27.7242 5.84087C27.7494 5.90135 27.7652 5.96184 27.7715 6.02232C27.7778 6.08281 27.7967 6.14329 27.8283 6.20377ZM25.8978 12.3845C25.8725 12.3769 25.8536 12.3656 25.841 12.3504C25.8347 12.3278 25.8158 12.3126 25.7842 12.3051V12.4298H25.8599L25.8978 12.3845Z" fill="url(#paint0_linear_1102_1178)"/>
<path d="M33.8469 11.0236C33.809 11.0916 33.7869 11.1672 33.7806 11.2504C33.7743 11.3336 33.7712 11.4092 33.7712 11.4772C33.7712 11.5679 33.7712 11.6587 33.7712 11.7494C33.7775 11.8326 33.7806 11.9157 33.7806 11.9989V12.169C33.768 12.2219 33.7491 12.2748 33.7239 12.3278C33.6986 12.3807 33.6797 12.4336 33.6671 12.4865C33.5788 12.7663 33.5346 13.046 33.5346 13.3257V13.3484C33.5031 13.4392 33.4715 13.5223 33.44 13.5979C33.4147 13.6735 33.3895 13.7491 33.3643 13.8247C33.339 13.8928 33.3201 13.9684 33.3075 14.0516C33.2949 14.1272 33.2917 14.2179 33.298 14.3237C33.2097 14.5883 33.093 14.8303 32.9479 15.0495C32.8028 15.2612 32.6608 15.4805 32.522 15.7073C32.3895 15.7678 32.2665 15.8472 32.153 15.9455C32.0457 16.0437 31.9416 16.1534 31.8407 16.2743C31.6451 16.3499 31.4527 16.4369 31.2634 16.5352C31.0742 16.6335 30.9038 16.7658 30.7524 16.9321C30.6325 16.9472 30.5127 16.9699 30.3928 17.0001C30.2729 17.0304 30.1562 17.0757 30.0427 17.1362H29.9291C29.8723 17.1362 29.8313 17.1211 29.8061 17.0909C29.7241 17.1438 29.6389 17.1816 29.5506 17.2043C29.4622 17.2194 29.3739 17.227 29.2856 17.227C29.172 17.227 29.0585 17.2194 28.9449 17.2043C28.8377 17.1816 28.7273 17.1589 28.6137 17.1362C28.5506 17.0304 28.4623 16.951 28.3487 16.8981C28.2352 16.8376 28.1342 16.7809 28.0459 16.728C27.863 16.4255 27.7305 16.1345 27.6485 15.8547C27.5664 15.5674 27.4813 15.2461 27.393 14.8908C27.4056 14.7849 27.4277 14.6829 27.4592 14.5846C27.4907 14.4787 27.5034 14.3653 27.4971 14.2443C27.6106 13.8512 27.7589 13.4959 27.9418 13.1783C28.1311 12.8532 28.3456 12.5432 28.5853 12.2484C28.5853 12.203 28.5916 12.1652 28.6042 12.135C28.6232 12.1047 28.6263 12.0594 28.6137 11.9989C28.62 12.0064 28.6326 12.0102 28.6516 12.0102C28.702 12.0102 28.7336 11.9951 28.7462 11.9649C28.7588 11.9271 28.762 11.8855 28.7557 11.8401C28.9828 11.6662 29.1878 11.4659 29.3708 11.2391C29.56 11.0122 29.7745 10.8232 30.0143 10.672C30.0332 10.604 30.0647 10.5473 30.1089 10.5019C30.1531 10.4565 30.1878 10.4036 30.213 10.3431C30.4149 10.2751 30.5978 10.173 30.7619 10.0369C30.9259 9.90085 31.0994 9.77988 31.2823 9.67404C31.3833 9.60599 31.4779 9.56063 31.5662 9.53795C31.6609 9.5077 31.7618 9.47746 31.8691 9.44722C31.9069 9.4321 31.9416 9.42076 31.9732 9.4132C32.0047 9.40564 32.0394 9.40186 32.0773 9.40186C32.1908 9.40186 32.3012 9.42832 32.4085 9.48124C32.5157 9.52661 32.6261 9.54929 32.7397 9.54929C32.7712 9.54929 32.7965 9.54929 32.8154 9.54929C32.8406 9.54173 32.8659 9.53417 32.8911 9.52661C32.9983 9.68538 33.134 9.80634 33.298 9.88951C33.3359 10.0029 33.38 10.1012 33.4305 10.1844C33.4873 10.2675 33.5441 10.3507 33.6008 10.4339C33.6576 10.5095 33.7081 10.5964 33.7522 10.6947C33.8027 10.7854 33.8343 10.8951 33.8469 11.0236ZM32.9006 11.6133C32.9006 11.5755 32.8974 11.5415 32.8911 11.5112C32.828 11.4886 32.7681 11.4583 32.7113 11.4205C32.6545 11.3827 32.5914 11.3638 32.522 11.3638C32.4779 11.3638 32.4337 11.3751 32.3895 11.3978C32.3832 11.3449 32.3643 11.3071 32.3328 11.2844C32.3075 11.2617 32.276 11.2428 32.2381 11.2277C32.2066 11.205 32.1719 11.1899 32.134 11.1824C32.1025 11.1672 32.0741 11.1445 32.0489 11.1143C32.0299 11.0538 32.0079 10.9933 31.9826 10.9329C31.9637 10.8648 31.9258 10.8157 31.8691 10.7854C31.8123 10.8535 31.746 10.9102 31.6703 10.9555C31.5946 10.9933 31.5158 11.0311 31.4338 11.0689C31.3581 11.1067 31.2823 11.1521 31.2066 11.205C31.1372 11.258 31.0773 11.3222 31.0268 11.3978H30.8565C30.8186 11.481 30.765 11.5453 30.6956 11.5906C30.6262 11.6284 30.5663 11.6851 30.5158 11.7607C30.4149 11.8212 30.3202 11.8968 30.2319 11.9875C30.1499 12.0707 30.0679 12.1614 29.9859 12.2597C29.9039 12.3504 29.8219 12.445 29.7398 12.5432C29.6641 12.6415 29.5821 12.7323 29.4938 12.8154C29.4118 13.0271 29.3203 13.2123 29.2194 13.3711C29.1247 13.5223 29.0332 13.6773 28.9449 13.8361C28.8629 13.9949 28.7904 14.1687 28.7273 14.3578C28.6705 14.5392 28.6421 14.766 28.6421 15.0382V15.1516C28.6421 15.1894 28.6453 15.2272 28.6516 15.265C28.7336 15.3709 28.7998 15.4843 28.8503 15.6052C28.9071 15.7262 28.9986 15.8131 29.1247 15.8661C29.2509 15.9266 29.3834 15.953 29.5222 15.9455C29.6673 15.9379 29.8061 15.9568 29.9386 16.0022C30.2414 15.9341 30.5316 15.8245 30.8092 15.6733C31.0931 15.5145 31.3612 15.3255 31.6136 15.1062C31.6514 15.0684 31.6956 15.0306 31.746 14.9928C31.7965 14.9475 31.8375 14.9021 31.8691 14.8567C31.9006 14.8189 31.9258 14.7774 31.9448 14.732C31.97 14.6866 31.9952 14.6451 32.0205 14.6073C32.0709 14.509 32.1277 14.4107 32.1908 14.3124C32.2539 14.2141 32.3201 14.1234 32.3895 14.0402C32.4211 13.8739 32.4621 13.7151 32.5126 13.5639C32.563 13.4051 32.6135 13.2501 32.664 13.0989C32.7144 12.9477 32.7555 12.7927 32.787 12.634C32.8249 12.4752 32.8438 12.3089 32.8438 12.135C32.8438 12.0972 32.8406 12.0556 32.8343 12.0102C32.8343 11.9649 32.8312 11.9233 32.8249 11.8855C32.8753 11.8023 32.9006 11.7116 32.9006 11.6133Z" fill="url(#paint1_linear_1102_1178)"/>
<path d="M42.6477 10.2978C42.6225 10.3961 42.5814 10.4868 42.5247 10.57L42.3638 10.8081C42.3133 10.8837 42.2692 10.9669 42.2313 11.0576C42.1998 11.1408 42.1903 11.2391 42.2029 11.3525C42.1903 11.3525 42.1745 11.3525 42.1556 11.3525C42.1367 11.3449 42.1209 11.3411 42.1083 11.3411C42.0073 11.3411 41.9285 11.3714 41.8717 11.4318C41.8212 11.4848 41.7518 11.5301 41.6635 11.5679C41.6509 11.5226 41.6351 11.481 41.6162 11.4432C41.5973 11.3978 41.5689 11.3676 41.531 11.3525C41.3796 11.3903 41.2282 11.4205 41.0768 11.4432C40.9254 11.4583 40.774 11.481 40.6226 11.5112C40.5532 11.5264 40.4838 11.549 40.4144 11.5793C40.345 11.602 40.2724 11.6246 40.1967 11.6473C40.1589 11.6624 40.1179 11.67 40.0737 11.67C40.0295 11.6624 39.9854 11.6624 39.9412 11.67C39.7898 11.6776 39.6258 11.6927 39.4491 11.7154C39.2725 11.7305 39.1147 11.7872 38.976 11.8855C38.9129 11.8704 38.8466 11.859 38.7772 11.8515C38.7078 11.8439 38.6384 11.8401 38.569 11.8401C38.4176 11.8401 38.2504 11.859 38.0675 11.8968C37.8908 11.9271 37.7331 11.9913 37.5943 12.0896C37.5628 12.0745 37.5281 12.0631 37.4902 12.0556C37.4587 12.048 37.4208 12.0442 37.3767 12.0442C37.364 12.0442 37.3546 12.048 37.3483 12.0556C37.342 12.0556 37.3325 12.0556 37.3199 12.0556C37.3136 12.1236 37.3199 12.1917 37.3388 12.2597C37.364 12.3202 37.4051 12.3693 37.4618 12.4071C37.4366 12.4903 37.424 12.581 37.424 12.6793C37.424 12.8079 37.4303 12.9364 37.4429 13.0649C37.4618 13.1934 37.4713 13.322 37.4713 13.4505C37.4713 13.5941 37.4555 13.7076 37.424 13.7907C37.4871 14.0175 37.5186 14.2595 37.5186 14.5165C37.5186 14.6073 37.5123 14.698 37.4997 14.7887C37.4934 14.8719 37.4902 14.9626 37.4902 15.0609C37.4902 15.144 37.5155 15.2121 37.5659 15.265C37.6164 15.3104 37.6416 15.3746 37.6416 15.4578C37.6416 15.488 37.6353 15.5183 37.6227 15.5485C37.711 15.5258 37.7962 15.4956 37.8782 15.4578C37.9602 15.4124 38.0454 15.3898 38.1337 15.3898C38.1842 15.3898 38.2315 15.4011 38.2757 15.4238C38.3261 15.4465 38.3703 15.4767 38.4082 15.5145C38.4019 15.5523 38.3955 15.5939 38.3892 15.6393C38.3892 15.6846 38.3892 15.73 38.3892 15.7753C38.3892 15.8585 38.3892 15.9379 38.3892 16.0135C38.3955 16.0815 38.4019 16.1571 38.4082 16.2403C38.3577 16.3462 38.2978 16.4407 38.2284 16.5238C38.1653 16.607 38.1211 16.7128 38.0959 16.8414C38.0012 16.8414 37.9161 16.8678 37.8404 16.9208C37.771 16.9661 37.7047 17.019 37.6416 17.0795C37.5785 17.1325 37.5155 17.1854 37.4524 17.2383C37.3893 17.2837 37.3199 17.3063 37.2442 17.3063C37.1495 17.3063 37.0833 17.2912 37.0455 17.261C37.0076 17.2232 36.9792 17.1854 36.9603 17.1476C36.9414 17.1098 36.9224 17.0757 36.9035 17.0455C36.8909 17.0153 36.8593 17.0039 36.8089 17.0115C36.7963 16.9132 36.771 16.8225 36.7332 16.7393C36.6953 16.6486 36.6543 16.5616 36.6101 16.4785C36.5723 16.3953 36.5313 16.3121 36.4871 16.229C36.4493 16.1382 36.4209 16.0475 36.402 15.9568C36.3641 15.7602 36.3483 15.5561 36.3546 15.3444C36.3609 15.1327 36.3326 14.9286 36.2695 14.732C36.2821 14.6262 36.2915 14.5203 36.2979 14.4145C36.3042 14.3011 36.3073 14.1914 36.3073 14.0856C36.3073 13.8739 36.301 13.666 36.2884 13.4618C36.2821 13.2501 36.2758 13.0347 36.2695 12.8154C36.2253 12.7474 36.1969 12.6718 36.1843 12.5886C36.178 12.4979 36.1717 12.4109 36.1654 12.3278C36.1464 12.3051 36.1244 12.2824 36.0991 12.2597C36.0802 12.237 36.0676 12.2068 36.0613 12.169C36.0108 12.1539 35.973 12.1463 35.9477 12.1463C35.8594 12.1463 35.7837 12.1728 35.7206 12.2257C35.6638 12.2711 35.6102 12.2937 35.5597 12.2937C35.5093 12.2937 35.4619 12.2862 35.4178 12.2711C35.3736 12.2559 35.3295 12.2484 35.2853 12.2484C35.2474 12.2484 35.2254 12.2597 35.2191 12.2824C35.2191 12.2975 35.2064 12.3126 35.1812 12.3278C35.1623 12.3429 35.1181 12.358 35.0487 12.3731C34.9793 12.3882 34.9005 12.4034 34.8121 12.4185C34.7301 12.4261 34.6481 12.4336 34.5661 12.4412C34.4904 12.4487 34.4399 12.4525 34.4147 12.4525C34.3137 12.4525 34.238 12.4298 34.1876 12.3845C34.1308 12.3315 34.0645 12.2748 33.9888 12.2144C34.0014 12.169 34.0078 12.1388 34.0078 12.1236C34.0078 12.048 33.9888 11.9875 33.951 11.9422C33.9131 11.8893 33.8942 11.8439 33.8942 11.8061C33.8942 11.7229 33.9226 11.6587 33.9794 11.6133C34.0298 11.5679 34.0582 11.4961 34.0645 11.3978C34.2096 11.3222 34.3579 11.2655 34.5093 11.2277C34.6607 11.1899 34.8153 11.1597 34.973 11.137C35.1307 11.1143 35.2853 11.0878 35.4367 11.0576C35.5944 11.0274 35.749 10.9782 35.9004 10.9102C35.9446 10.9177 35.9856 10.9253 36.0234 10.9329C36.0676 10.9329 36.1117 10.9329 36.1559 10.9329C36.3452 10.9329 36.5313 10.9102 36.7142 10.8648C36.9035 10.8119 37.0959 10.7854 37.2915 10.7854C37.342 10.7854 37.3924 10.7892 37.4429 10.7968C37.4934 10.8043 37.5438 10.8157 37.5943 10.8308C37.8467 10.7854 38.0959 10.7363 38.3419 10.6834C38.5943 10.6304 38.8529 10.5851 39.1179 10.5473C39.2441 10.5321 39.3671 10.5208 39.487 10.5132C39.6131 10.4981 39.7393 10.4792 39.8655 10.4565C39.9097 10.449 39.9412 10.4376 39.9601 10.4225C39.9854 10.3998 39.998 10.3583 39.998 10.2978C40.0548 10.328 40.1179 10.3431 40.1872 10.3431C40.2945 10.3431 40.3986 10.3205 40.4995 10.2751C40.6005 10.2297 40.7046 10.207 40.8118 10.207C40.8371 10.207 40.8591 10.2108 40.8781 10.2184C40.897 10.2184 40.9159 10.2184 40.9348 10.2184C40.979 10.2184 41.0011 10.1957 41.0011 10.1503C41.0074 10.0974 41.0389 10.0634 41.0957 10.0483C41.1399 10.0332 41.203 10.0218 41.285 10.0143C41.367 10.0067 41.4522 9.99914 41.5405 9.99158C41.6351 9.97645 41.7203 9.96133 41.796 9.94621C41.878 9.92353 41.9379 9.89329 41.9758 9.85549L42.042 9.73074C42.1556 9.7383 42.2376 9.79878 42.2881 9.91219C42.3449 10.018 42.3764 10.1352 42.3827 10.2638C42.408 10.294 42.4426 10.3091 42.4868 10.3091C42.5373 10.3016 42.5814 10.2978 42.6193 10.2978H42.6477Z" fill="url(#paint2_linear_1102_1178)"/>
<path d="M50.4359 6.78215C50.3855 6.81995 50.3318 6.84263 50.2751 6.85019C50.2183 6.85775 50.1583 6.8691 50.0953 6.88422C50.0385 6.89178 49.9848 6.9069 49.9344 6.92958C49.8839 6.95226 49.8461 6.99384 49.8208 7.05433C49.7577 6.97872 49.6883 6.91446 49.6126 6.86154C49.5369 6.80861 49.4612 6.75191 49.3855 6.69142C49.3224 6.71411 49.2593 6.74435 49.1962 6.78215C49.1332 6.81995 49.0701 6.83885 49.007 6.83885C48.9628 6.83885 48.9187 6.81995 48.8745 6.78215C48.824 6.82751 48.7641 6.86531 48.6947 6.89556C48.6316 6.91824 48.5622 6.94092 48.4865 6.9636C48.4171 6.98628 48.3509 7.01652 48.2878 7.05433C48.231 7.09213 48.19 7.14883 48.1648 7.22444C48.1521 7.18664 48.1206 7.17529 48.0701 7.19042C48.026 7.20554 48.0007 7.18664 47.9944 7.13371C47.7925 7.21688 47.5875 7.2887 47.3793 7.34919C47.1711 7.40967 46.9629 7.47393 46.7547 7.54198C46.5465 7.61002 46.3415 7.68563 46.1396 7.76879C45.9377 7.85196 45.7422 7.95402 45.5529 8.07499C45.5466 8.08255 45.5434 8.09389 45.5434 8.10901C45.5434 8.18462 45.5529 8.25644 45.5718 8.32449C45.5908 8.39253 45.6065 8.4568 45.6191 8.51728C45.5056 8.97847 45.4299 9.44722 45.392 9.92353C45.3542 10.3998 45.3037 10.8686 45.2406 11.3298V11.3751C45.2406 11.4129 45.2532 11.4432 45.2785 11.4659C45.3037 11.481 45.3163 11.5112 45.3163 11.5566L45.3069 11.5793C45.2753 11.602 45.2532 11.636 45.2406 11.6813C45.228 11.7191 45.2217 11.7607 45.2217 11.8061C45.2217 11.8363 45.228 11.8817 45.2406 11.9422C45.1334 12.3731 45.0608 12.8116 45.023 13.2577C44.9914 13.7038 44.9504 14.1498 44.8999 14.5959L44.8148 15.3444C44.8022 15.3898 44.7895 15.4351 44.7769 15.4805C44.7706 15.5183 44.7675 15.5599 44.7675 15.6052C44.7675 15.8472 44.7801 16.0853 44.8053 16.3197C44.8368 16.5465 44.8463 16.7809 44.8337 17.0228C44.8905 17.1287 44.9189 17.2307 44.9189 17.329C44.9189 17.3668 44.9157 17.4046 44.9094 17.4424C44.9094 17.4802 44.9062 17.518 44.8999 17.5558C44.982 17.6541 45.0766 17.7222 45.1838 17.76C45.2974 17.8053 45.3983 17.8734 45.4867 17.9641V18.0095C45.4867 18.0851 45.4772 18.1569 45.4583 18.2249C45.4393 18.3005 45.4236 18.3762 45.4109 18.4518C45.3983 18.5122 45.3826 18.5992 45.3636 18.7126C45.351 18.826 45.3321 18.9016 45.3069 18.9394C45.2753 18.9923 45.228 19.0377 45.1649 19.0755C45.1081 19.1209 45.0513 19.1435 44.9946 19.1435C44.9756 19.1435 44.9473 19.1322 44.9094 19.1095C44.8779 19.0868 44.8526 19.0679 44.8337 19.0528C44.8022 19.0528 44.7611 19.0717 44.7107 19.1095C44.6602 19.1473 44.6097 19.1662 44.5593 19.1662C44.534 19.1662 44.5119 19.1624 44.493 19.1549C44.4741 19.1549 44.452 19.1473 44.4268 19.1322C44.4015 19.0566 44.3637 18.9886 44.3132 18.9281C44.2691 18.8751 44.2154 18.8222 44.1523 18.7693C44.1586 18.6635 44.1429 18.5841 44.105 18.5311C44.0672 18.4782 44.0293 18.4102 43.9915 18.327C43.9788 18.2212 43.9662 18.1002 43.9536 17.9641C43.9473 17.828 43.9 17.7297 43.8117 17.6692C43.8432 17.6163 43.859 17.5445 43.859 17.4538C43.859 17.416 43.8527 17.3744 43.8401 17.329C43.8337 17.2837 43.8148 17.2496 43.7833 17.227V17.2043C43.777 17.1665 43.7864 17.14 43.8117 17.1249C43.8432 17.1022 43.859 17.072 43.859 17.0342V16.9888C43.8148 16.7469 43.7927 16.4936 43.7927 16.229C43.7927 15.9795 43.799 15.7338 43.8117 15.4918C43.8243 15.2423 43.8243 14.9928 43.8117 14.7433C43.8495 14.7055 43.8779 14.6451 43.8968 14.5619C43.9221 14.4787 43.941 14.388 43.9536 14.2897C43.9662 14.1914 43.9725 14.0969 43.9725 14.0062C43.9788 13.9079 43.9852 13.8285 43.9915 13.768C44.023 13.3371 44.0735 12.9137 44.1429 12.4979C44.2123 12.0745 44.2533 11.6435 44.2659 11.205C44.2974 11.1445 44.3164 11.0652 44.3227 10.9669C44.329 10.8686 44.3321 10.7665 44.3321 10.6607C44.3321 10.5473 44.3385 10.4376 44.3511 10.3318C44.3637 10.226 44.3889 10.1352 44.4268 10.0596C44.4268 9.84793 44.4425 9.63623 44.4741 9.42454C44.5056 9.20529 44.5214 8.98603 44.5214 8.76678C44.5214 8.66093 44.5119 8.5513 44.493 8.4379C44.4299 8.40765 44.3731 8.39253 44.3227 8.39253C44.2533 8.39253 44.1807 8.41143 44.105 8.44924C44.0356 8.47948 43.9852 8.52862 43.9536 8.59667C43.8148 8.60423 43.6792 8.63069 43.5467 8.67605C43.4142 8.72141 43.2817 8.7441 43.1492 8.7441H43.0546C43.0294 8.7441 43.001 8.74031 42.9694 8.73275C42.9253 8.75544 42.878 8.77434 42.8275 8.78946C42.7833 8.80458 42.7644 8.84994 42.7707 8.92555C42.5751 8.94823 42.3827 8.99737 42.1935 9.07298C42.0105 9.14858 41.8275 9.23175 41.6446 9.32247C41.4616 9.40564 41.2787 9.48502 41.0957 9.56063C40.9065 9.63623 40.714 9.68538 40.5185 9.70806C40.4491 9.74586 40.4049 9.82524 40.386 9.94621C40.2472 9.93109 40.1305 9.88951 40.0358 9.82146C39.9412 9.75342 39.8308 9.68916 39.7046 9.62867C39.6668 9.4699 39.6478 9.31869 39.6478 9.17504C39.6478 8.98603 39.6794 8.80458 39.7425 8.63069C39.8056 8.4568 39.9065 8.32827 40.0453 8.2451C40.0768 8.25266 40.1052 8.26022 40.1305 8.26778C40.1557 8.26778 40.1841 8.26778 40.2156 8.26778C40.3166 8.26778 40.4175 8.2451 40.5185 8.19974C40.6194 8.15438 40.7235 8.1317 40.8307 8.1317C40.8623 8.1317 40.897 8.14304 40.9348 8.16572C40.979 8.13548 41.0358 8.11279 41.1052 8.09767C41.1683 8.07499 41.2282 8.05609 41.285 8.04097C41.3481 8.01829 41.4049 7.98805 41.4553 7.95024C41.5058 7.91244 41.5373 7.85952 41.55 7.79147C41.5815 7.82172 41.6162 7.84062 41.654 7.84818C41.6919 7.85574 41.7298 7.85952 41.7676 7.85952C41.8496 7.85952 41.9348 7.84062 42.0231 7.80281C42.1114 7.76501 42.1808 7.70453 42.2313 7.62136C42.2755 7.68185 42.3386 7.71209 42.4206 7.71209C42.5089 7.71209 42.5941 7.68563 42.6761 7.6327C42.7644 7.57222 42.8496 7.54198 42.9316 7.54198C42.9947 7.54198 43.042 7.56844 43.0735 7.62136C43.1429 7.55332 43.2249 7.5004 43.3196 7.46259C43.4142 7.42479 43.5088 7.39077 43.6035 7.36053C43.7044 7.33028 43.7959 7.29626 43.8779 7.25846C43.9662 7.22066 44.0356 7.16773 44.0861 7.09969C44.1176 7.10725 44.1681 7.11103 44.2375 7.11103C44.3448 7.11103 44.4457 7.09591 44.5403 7.06567C44.6413 7.02787 44.7422 6.99384 44.8432 6.9636L45.0419 6.94092C45.0924 6.93336 45.1365 6.91446 45.1744 6.88422C45.2185 6.85397 45.2627 6.82751 45.3069 6.80483C45.351 6.78215 45.3952 6.76325 45.4393 6.74813C45.4898 6.73301 45.5497 6.72923 45.6191 6.73679C45.7706 6.6385 45.9314 6.5629 46.1018 6.50997C46.2721 6.45705 46.4456 6.41169 46.6222 6.37388C46.7989 6.32852 46.9724 6.27938 47.1427 6.22645C47.3131 6.16597 47.4739 6.07902 47.6253 5.96562H47.6537C47.7799 5.96562 47.9029 5.93916 48.0228 5.88623C48.149 5.83331 48.2657 5.76148 48.3729 5.67076C48.3919 5.67832 48.4108 5.6821 48.4297 5.6821H48.496C48.6726 5.6821 48.8429 5.65186 49.007 5.59137C49.1773 5.53089 49.354 5.50065 49.5369 5.50065C49.6442 5.50065 49.7293 5.51955 49.7924 5.55735C49.8555 5.58759 49.9123 5.62918 49.9628 5.6821C50.0132 5.72746 50.0669 5.77283 50.1236 5.81819C50.1804 5.86355 50.253 5.89757 50.3413 5.92025C50.3981 6.04878 50.4265 6.18865 50.4265 6.33986C50.4265 6.48351 50.4296 6.63094 50.4359 6.78215Z" fill="url(#paint3_linear_1102_1178)"/>
<path d="M54.5903 16.762C54.5714 16.8678 54.5304 16.9548 54.4673 17.0228C54.4105 17.0833 54.3411 17.1325 54.2591 17.1703C54.1771 17.2081 54.0919 17.2345 54.0036 17.2496C53.9216 17.2572 53.8458 17.261 53.7764 17.261C53.7449 17.261 53.7134 17.261 53.6818 17.261C53.6566 17.2534 53.6282 17.2496 53.5966 17.2496C53.5651 17.2496 53.5493 17.2685 53.5493 17.3063C53.5493 17.3441 53.5336 17.3706 53.502 17.3857C53.4705 17.3706 53.4389 17.3593 53.4074 17.3517C53.3758 17.3441 53.3443 17.3404 53.3128 17.3404C53.2686 17.3404 53.2244 17.3441 53.1803 17.3517C53.1424 17.3593 53.1046 17.363 53.0667 17.363C53.0162 17.363 52.9784 17.3555 52.9531 17.3404C52.9342 17.3252 52.9153 17.3101 52.8964 17.295C52.8838 17.2723 52.868 17.2496 52.8491 17.227C52.8364 17.2043 52.8144 17.1854 52.7828 17.1703C52.7386 17.1476 52.7008 17.1438 52.6693 17.1589C52.644 17.174 52.603 17.1514 52.5462 17.0909C52.4705 17.0153 52.4043 16.9245 52.3475 16.8187C52.297 16.7053 52.2466 16.5881 52.1961 16.4671C52.1456 16.3462 52.092 16.2252 52.0352 16.1042C51.9784 15.9833 51.9122 15.8774 51.8365 15.7867H51.7608C51.6472 15.7867 51.5684 15.8434 51.5242 15.9568C51.4927 15.9341 51.4611 15.9077 51.4296 15.8774C51.398 15.8396 51.3633 15.8094 51.3255 15.7867C51.1804 15.8396 51.029 15.885 50.8712 15.9228C50.7135 15.9606 50.5558 15.9795 50.3981 15.9795H50.2656C50.2277 15.9795 50.1867 15.9719 50.1426 15.9568C50.0795 15.987 50.0227 16.0248 49.9722 16.0702C49.9218 16.108 49.865 16.1269 49.8019 16.1269C49.764 16.1269 49.7199 16.1118 49.6694 16.0815C49.6316 16.0815 49.6126 16.1004 49.6126 16.1382C49.6189 16.1761 49.6 16.195 49.5558 16.195H49.4707C49.3824 16.195 49.294 16.1987 49.2057 16.2063C49.1237 16.2139 49.0385 16.2176 48.9502 16.2176C48.8303 16.2176 48.7073 16.1987 48.5811 16.1609C48.5496 16.1836 48.5149 16.195 48.477 16.195C48.4518 16.2101 48.4329 16.2365 48.4203 16.2743C48.4076 16.3046 48.395 16.3348 48.3824 16.3651C48.3698 16.3877 48.3509 16.4104 48.3256 16.4331C48.3067 16.4482 48.2783 16.452 48.2405 16.4444C48.2278 16.5352 48.1963 16.607 48.1458 16.6599C48.0954 16.7128 48.0701 16.7922 48.0701 16.8981C48.0007 16.9434 47.9439 17.0001 47.8998 17.0682C47.8556 17.1362 47.8115 17.2081 47.7673 17.2837C47.7231 17.3593 47.6758 17.4311 47.6253 17.4991C47.5812 17.5672 47.5244 17.6201 47.455 17.6579C47.4235 17.7033 47.414 17.7751 47.4266 17.8734C47.3572 17.9414 47.2721 18.0019 47.1711 18.0548C47.0702 18.1078 46.9755 18.1342 46.8872 18.1342C46.7043 18.1342 46.5781 18.017 46.5087 17.7827C46.5087 17.707 46.515 17.6277 46.5276 17.5445C46.5339 17.4538 46.5465 17.3706 46.5655 17.295C46.5844 17.2118 46.6128 17.14 46.6506 17.0795C46.6885 17.0115 46.7421 16.9623 46.8115 16.9321C46.8115 16.8641 46.7926 16.8187 46.7547 16.796C46.7169 16.7658 46.7011 16.7166 46.7074 16.6486C46.8778 16.5503 47.026 16.4218 47.1522 16.263C47.2784 16.1042 47.3919 15.9379 47.4929 15.764C47.6001 15.5826 47.7074 15.4011 47.8146 15.2196C47.9219 15.0382 48.0417 14.8756 48.1742 14.732V14.4938C48.3635 14.2519 48.4865 13.9797 48.5433 13.6773C48.6127 13.6622 48.6568 13.6244 48.6758 13.5639C48.701 13.5034 48.7136 13.4316 48.7136 13.3484C48.7452 13.3484 48.7641 13.3333 48.7704 13.3031C48.783 13.2653 48.8114 13.2539 48.8556 13.269C48.9123 13.0876 48.9754 12.9213 49.0448 12.7701C49.1142 12.6188 49.1836 12.4676 49.253 12.3164C49.3224 12.1577 49.3824 11.9951 49.4328 11.8288C49.4896 11.6624 49.5306 11.4772 49.5558 11.2731C49.6442 11.2655 49.6915 11.2164 49.6978 11.1256C49.7104 11.0274 49.723 10.9404 49.7356 10.8648C49.8303 10.759 49.8997 10.6342 49.9438 10.4906C49.9943 10.3469 50.0385 10.1995 50.0763 10.0483C50.1142 9.88951 50.1552 9.73452 50.1993 9.58331C50.2498 9.42454 50.3192 9.28467 50.4075 9.1637V9.12968C50.4075 9.09188 50.3949 9.0692 50.3697 9.06164C50.3444 9.04651 50.3318 9.02005 50.3318 8.98225C50.3381 8.97469 50.3413 8.96713 50.3413 8.95957C50.417 8.92177 50.4738 8.86128 50.5116 8.77812C50.5495 8.68739 50.6063 8.62313 50.682 8.58533C50.8145 8.71385 50.9312 8.79324 51.0321 8.82348C51.1331 8.84616 51.2655 8.86506 51.4296 8.88018C51.5116 8.98603 51.5557 9.11456 51.5621 9.26577C51.5747 9.40942 51.5968 9.55307 51.6283 9.69672C51.6788 9.93865 51.7324 10.1768 51.7892 10.4112C51.8523 10.638 51.8996 10.8724 51.9311 11.1143C51.95 11.258 51.9847 11.394 52.0352 11.5226C52.0857 11.6511 52.1204 11.7834 52.1393 11.9195C52.1519 12.0253 52.1519 12.1463 52.1393 12.2824C52.1267 12.4109 52.1393 12.5243 52.1772 12.6226L52.2434 12.8041C52.2749 12.8872 52.3002 12.9742 52.3191 13.0649C52.3443 13.1556 52.3664 13.2464 52.3854 13.3371C52.4358 13.5639 52.48 13.8096 52.5178 14.0742C52.562 14.3313 52.6282 14.5657 52.7166 14.7774C52.7481 14.853 52.7954 14.9059 52.8585 14.9361C52.9279 14.9664 53.0036 14.9891 53.0856 15.0042C53.1676 15.0117 53.2465 15.0155 53.3222 15.0155C53.4042 15.008 53.4736 15.0042 53.5304 15.0042H53.625C53.6629 15.0042 53.7007 15.0117 53.7386 15.0269C53.7638 15.0873 53.7764 15.1403 53.7764 15.1856C53.7764 15.2764 53.7512 15.3482 53.7007 15.4011C53.6503 15.454 53.625 15.5145 53.625 15.5826C53.625 15.6204 53.6377 15.6619 53.6629 15.7073C53.6377 15.6997 53.5998 15.696 53.5493 15.696C53.4042 15.696 53.2623 15.7262 53.1235 15.7867C53.174 15.9152 53.2402 16.0248 53.3222 16.1156C53.4105 16.1987 53.502 16.2781 53.5966 16.3537C53.6597 16.2932 53.726 16.263 53.7954 16.263C53.8711 16.263 53.9405 16.2857 54.0036 16.331C54.073 16.3688 54.1455 16.3877 54.2212 16.3877C54.278 16.3877 54.319 16.3764 54.3442 16.3537C54.3947 16.4218 54.4357 16.4936 54.4673 16.5692C54.4988 16.6372 54.5398 16.7015 54.5903 16.762ZM51.6283 14.9475C51.6157 14.8189 51.5936 14.7282 51.5621 14.6753C51.5368 14.6148 51.5147 14.543 51.4958 14.4598C51.4706 14.354 51.4516 14.2406 51.439 14.1196C51.4327 13.9986 51.4201 13.8814 51.4012 13.768C51.357 13.511 51.3065 13.2539 51.2498 12.9969C51.1993 12.7398 51.1331 12.4903 51.051 12.2484C51.0763 12.203 51.0889 12.1614 51.0889 12.1236V12.0896C51.0321 12.014 50.9911 11.9233 50.9659 11.8174C50.9406 11.704 50.9154 11.5944 50.8902 11.4886C50.8712 11.3751 50.8428 11.2731 50.805 11.1824C50.7734 11.0841 50.7198 11.0047 50.6441 10.9442C50.6252 10.9896 50.6157 11.0425 50.6157 11.103C50.6157 11.1559 50.6189 11.205 50.6252 11.2504C50.6378 11.2958 50.6441 11.3449 50.6441 11.3978C50.581 11.4356 50.5337 11.4961 50.5022 11.5793C50.4769 11.6549 50.4328 11.7154 50.3697 11.7607C50.3192 12.0027 50.2467 12.2333 50.152 12.4525C50.0574 12.6642 49.9565 12.8759 49.8492 13.0876C49.7483 13.2993 49.6505 13.5148 49.5558 13.734C49.4612 13.9457 49.3855 14.1687 49.3287 14.4031C49.2467 14.4712 49.1899 14.5581 49.1584 14.664C49.1332 14.7698 49.1205 14.8756 49.1205 14.9815C49.1773 15.0193 49.2404 15.042 49.3098 15.0495C49.3855 15.0495 49.4581 15.0495 49.5275 15.0495C49.5969 15.0495 49.6631 15.0571 49.7262 15.0722C49.7893 15.0873 49.8461 15.1251 49.8965 15.1856C49.9785 15.1554 50.0669 15.1365 50.1615 15.1289C50.2624 15.1138 50.3444 15.0798 50.4075 15.0269C50.5337 15.0798 50.6694 15.1062 50.8145 15.1062C50.8902 15.1062 50.9627 15.0987 51.0321 15.0836C51.1078 15.0684 51.1804 15.0495 51.2498 15.0269C51.3065 15.042 51.3507 15.0684 51.3823 15.1062C51.4138 15.1365 51.4611 15.1478 51.5242 15.1403C51.5557 15.11 51.5747 15.0798 51.581 15.0495C51.5873 15.0117 51.6031 14.9777 51.6283 14.9475Z" fill="url(#paint4_linear_1102_1178)"/>
<path d="M62 17.0115C62 17.072 61.9779 17.1211 61.9338 17.1589C61.8896 17.1967 61.8391 17.2345 61.7823 17.2723L61.612 17.3744C61.5552 17.4046 61.5174 17.4462 61.4984 17.4991C61.4291 17.4765 61.3597 17.4613 61.2903 17.4538C61.2272 17.4462 61.1641 17.4424 61.101 17.4424C61.019 17.4424 60.9338 17.4538 60.8455 17.4765C60.7572 17.4916 60.6878 17.5407 60.6373 17.6239C60.6057 17.6088 60.5774 17.6012 60.5521 17.6012H60.4764C60.3818 17.6012 60.284 17.6088 60.1831 17.6239C60.0884 17.6466 59.9938 17.6579 59.8992 17.6579C59.8487 17.6579 59.7982 17.6541 59.7477 17.6466C59.7036 17.639 59.6626 17.6163 59.6247 17.5785C59.5679 17.6012 59.508 17.6125 59.4449 17.6125C59.3629 17.6125 59.284 17.5974 59.2083 17.5672C59.1326 17.5369 59.0569 17.5029 58.9812 17.4651C58.9118 17.4198 58.8393 17.3782 58.7636 17.3404C58.6879 17.3026 58.6122 17.2723 58.5365 17.2496L58.4702 17.0909C58.3693 17.0682 58.2746 17.0342 58.1863 16.9888C58.1043 16.9359 58.0223 16.8792 57.9403 16.8187C57.8583 16.7582 57.7762 16.7015 57.6942 16.6486C57.6185 16.5881 57.5397 16.5465 57.4576 16.5238C57.4261 16.4936 57.3977 16.4671 57.3725 16.4444C57.3472 16.4142 57.3283 16.3726 57.3157 16.3197C57.2337 16.297 57.158 16.2668 57.0886 16.229L56.8899 16.1042C56.8268 16.0589 56.7542 16.0211 56.6722 15.9908C56.5965 15.953 56.505 15.9303 56.3978 15.9228C56.3599 15.8547 56.3063 15.7905 56.2369 15.73C56.1675 15.6695 56.0981 15.6393 56.0287 15.6393C55.9845 15.6393 55.9498 15.6506 55.9246 15.6733V15.73C55.9246 15.8207 55.9467 15.9114 55.9908 16.0022C56.035 16.0929 56.0918 16.1571 56.1612 16.195C56.1549 16.2101 56.1517 16.2328 56.1517 16.263C56.1517 16.3084 56.158 16.3537 56.1706 16.3991C56.1896 16.4444 56.2211 16.4747 56.2653 16.4898C56.24 16.573 56.2085 16.6599 56.1706 16.7506C56.1328 16.8338 56.0855 16.9132 56.0287 16.9888C55.9719 17.0644 55.9088 17.1287 55.8394 17.1816C55.7763 17.227 55.7038 17.2496 55.6218 17.2496C55.5965 17.2648 55.5776 17.2874 55.565 17.3177C55.5587 17.3479 55.5524 17.3819 55.5461 17.4198C55.5461 17.45 55.5398 17.4802 55.5271 17.5105C55.5208 17.5407 55.5082 17.5634 55.4893 17.5785C55.4641 17.5861 55.4294 17.5899 55.3852 17.5899C55.3221 17.5899 55.2685 17.5785 55.2243 17.5558C55.1802 17.5332 55.1328 17.5029 55.0824 17.4651V17.4198C55.0824 17.329 55.0666 17.2572 55.0351 17.2043C55.0098 17.1514 54.9783 17.1022 54.9404 17.0568C54.9089 17.0039 54.8773 16.951 54.8458 16.8981C54.8206 16.8452 54.8079 16.7733 54.8079 16.6826C54.789 16.6977 54.7669 16.7091 54.7417 16.7166C54.7228 16.7242 54.7102 16.7393 54.7038 16.762C54.6912 16.6864 54.6849 16.6221 54.6849 16.5692C54.6849 16.418 54.7038 16.2743 54.7417 16.1382C54.7859 16.0022 54.8079 15.8585 54.8079 15.7073V15.5372C54.8079 15.3633 54.8048 15.1932 54.7985 15.0269C54.7922 14.8605 54.789 14.6942 54.789 14.5279C54.789 14.3842 54.7922 14.2443 54.7985 14.1083C54.8048 13.9646 54.8174 13.821 54.8363 13.6773C54.9057 13.1783 54.9625 12.6831 55.0067 12.1917C55.0571 11.6927 55.136 11.1975 55.2432 10.706C55.2369 10.6682 55.2275 10.6304 55.2149 10.5926C55.2085 10.5548 55.2054 10.517 55.2054 10.4792C55.2054 10.449 55.2085 10.4301 55.2149 10.4225C55.2401 10.2713 55.2969 10.1466 55.3852 10.0483C55.4735 9.94243 55.5871 9.88951 55.7259 9.88951H55.7543C55.83 9.92731 55.8867 9.98401 55.9246 10.0596C55.9688 10.1277 56.035 10.1541 56.1233 10.139C56.1233 10.1541 56.1202 10.1692 56.1139 10.1844C56.1139 10.1995 56.1139 10.2146 56.1139 10.2297C56.1139 10.3129 56.1328 10.3734 56.1706 10.4112C56.2085 10.449 56.2527 10.4906 56.3031 10.5359C56.2716 10.6115 56.2495 10.6985 56.2369 10.7968C56.2306 10.8951 56.2243 10.9933 56.218 11.0916C56.2117 11.1899 56.199 11.2844 56.1801 11.3751C56.1675 11.4659 56.1391 11.5415 56.0949 11.602C56.1202 11.6776 56.1359 11.7532 56.1423 11.8288C56.1486 11.9044 56.1517 11.9838 56.1517 12.0669C56.1517 12.1501 56.1486 12.237 56.1423 12.3278C56.1359 12.4109 56.1328 12.4979 56.1328 12.5886C56.1328 12.6718 56.1423 12.7474 56.1612 12.8154C56.3 12.8154 56.3788 12.736 56.3978 12.5773C56.5618 12.5243 56.7069 12.4525 56.8331 12.3618C56.9656 12.2635 57.0917 12.1614 57.2116 12.0556C57.3315 11.9497 57.4482 11.8401 57.5617 11.7267C57.6816 11.6133 57.8141 11.515 57.9592 11.4318V11.4092C57.9592 11.3714 57.9687 11.3487 57.9876 11.3411C58.0065 11.326 58.0097 11.292 57.9971 11.2391C58.0917 11.2013 58.1705 11.1521 58.2336 11.0916C58.303 11.0236 58.3661 10.9518 58.4229 10.8762L58.6027 10.638C58.6658 10.5548 58.7352 10.483 58.8109 10.4225C58.8614 10.294 58.9055 10.1579 58.9434 10.0143C58.9875 9.87061 59.0443 9.7383 59.1137 9.61733C59.2336 9.61733 59.3629 9.62867 59.5017 9.65135C59.6468 9.67404 59.7698 9.72696 59.8708 9.81012C59.8582 9.87061 59.8802 9.91219 59.937 9.93487C59.8676 10.2524 59.7635 10.5397 59.6247 10.7968C59.4859 11.0463 59.3061 11.258 59.0853 11.4318C59.0538 11.515 59.0128 11.5868 58.9623 11.6473C58.9118 11.7078 58.8614 11.7683 58.8109 11.8288C58.7604 11.8817 58.7099 11.9384 58.6595 11.9989C58.609 12.0594 58.568 12.1312 58.5365 12.2144C58.4608 12.2295 58.3945 12.2559 58.3377 12.2937C58.2873 12.3315 58.2368 12.3769 58.1863 12.4298C58.1422 12.4752 58.0917 12.5206 58.0349 12.5659C57.9844 12.6037 57.9277 12.634 57.8646 12.6566C57.8141 12.7323 57.7542 12.7965 57.6848 12.8494C57.6217 12.9024 57.5554 12.9553 57.486 13.0082C57.4229 13.0536 57.363 13.1065 57.3062 13.167C57.2495 13.2199 57.2084 13.2917 57.1832 13.3825H56.9372C56.8678 13.5261 56.7763 13.6471 56.6627 13.7454C56.5555 13.8361 56.4451 13.923 56.3315 14.0062C56.3504 14.0969 56.3851 14.1725 56.4356 14.233C56.4861 14.2859 56.5397 14.3351 56.5965 14.3804C56.6596 14.4258 56.7195 14.4749 56.7763 14.5279C56.8394 14.5732 56.893 14.6299 56.9372 14.698C57.2021 14.8189 57.4576 14.9588 57.7037 15.1176C57.9497 15.2688 58.1832 15.454 58.404 15.6733C58.4166 15.6657 58.4324 15.6619 58.4513 15.6619C58.5018 15.6619 58.5428 15.6808 58.5743 15.7186C58.6059 15.7489 58.65 15.7602 58.7068 15.7527C58.732 15.8283 58.7667 15.8812 58.8109 15.9114C58.855 15.9341 58.8992 15.953 58.9434 15.9681C58.9938 15.9833 59.0412 16.0059 59.0853 16.0362C59.1295 16.0664 59.161 16.1193 59.18 16.195C59.2746 16.2025 59.3598 16.2252 59.4355 16.263C59.5175 16.3008 59.59 16.3613 59.6531 16.4444H59.7667C59.9686 16.4444 60.1641 16.4671 60.3534 16.5125C60.5427 16.5579 60.7351 16.5805 60.9307 16.5805C61.0316 16.5805 61.1294 16.573 61.224 16.5579C61.3186 16.5352 61.4101 16.4974 61.4984 16.4444C61.53 16.4671 61.5647 16.4898 61.6025 16.5125C61.6404 16.5352 61.6814 16.5465 61.7256 16.5465C61.7571 16.5465 61.8044 16.539 61.8675 16.5238C61.8738 16.607 61.8959 16.6864 61.9338 16.762C61.9779 16.8376 62 16.9208 62 17.0115Z" fill="url(#paint5_linear_1102_1178)"/>
<path d="M27.8283 6.20377C27.7399 6.35498 27.6453 6.49863 27.5444 6.63472C27.4497 6.76325 27.3299 6.86531 27.1848 6.94092C27.1091 7.46259 27.046 7.98805 26.9955 8.51728C26.9513 9.04651 26.9009 9.57575 26.8441 10.105C26.7936 10.6342 26.7337 11.1635 26.6643 11.6927C26.6012 12.2144 26.5129 12.7323 26.3993 13.2464L26.4088 13.3825C26.4214 13.5337 26.4056 13.6773 26.3615 13.8134C26.3173 13.9495 26.2984 14.0969 26.3047 14.2557C26.2164 14.5203 26.1407 14.8152 26.0776 15.1403C26.0145 15.4578 25.9766 15.7602 25.964 16.0475C25.9009 16.1761 25.8473 16.3159 25.8031 16.4671C25.7653 16.6183 25.7243 16.7733 25.6801 16.9321C25.6423 17.0833 25.5981 17.2307 25.5476 17.3744C25.4972 17.5105 25.4309 17.6352 25.3489 17.7486C25.33 17.9225 25.2921 18.0851 25.2353 18.2363C25.1849 18.3951 25.1249 18.55 25.0555 18.7013C24.9924 18.8525 24.9294 18.9999 24.8663 19.1435C24.8095 19.2948 24.7685 19.4535 24.7433 19.6199C24.636 19.8164 24.5288 20.0054 24.4215 20.1869C24.3143 20.3759 24.2165 20.5725 24.1281 20.7766C24.0461 20.822 23.9736 20.8711 23.9105 20.924C23.8537 20.9845 23.7969 21.0374 23.7401 21.0828C23.6834 21.1357 23.6171 21.1811 23.5414 21.2189C23.472 21.2567 23.3869 21.2756 23.2859 21.2756C23.2607 21.2756 23.2354 21.2718 23.2102 21.2643C23.1913 21.2643 23.1692 21.2643 23.144 21.2643C23.0556 21.1811 22.9673 21.0979 22.879 21.0148C22.7907 20.9392 22.696 20.8711 22.5951 20.8106C22.5951 20.7653 22.5888 20.7275 22.5762 20.6972C22.5699 20.667 22.5636 20.6367 22.5572 20.6065C22.5509 20.5763 22.5478 20.546 22.5478 20.5158C22.5478 20.4855 22.5541 20.4477 22.5667 20.4024C22.5099 20.357 22.4437 20.2738 22.368 20.1529C22.2986 20.0395 22.2639 19.9412 22.2639 19.858C22.2639 19.7824 22.286 19.7446 22.3301 19.7446C22.3175 19.669 22.2954 19.5934 22.2639 19.5178C22.2386 19.4497 22.226 19.3779 22.226 19.3023C22.226 19.2494 22.2386 19.1927 22.2639 19.1322C22.1945 18.9356 22.1314 18.7315 22.0746 18.5198C22.0178 18.3157 21.98 18.104 21.9611 17.8847C21.898 17.7864 21.8475 17.673 21.8096 17.5445C21.7781 17.4084 21.7529 17.2685 21.7339 17.1249C21.715 16.9812 21.6992 16.8414 21.6866 16.7053C21.674 16.5616 21.6582 16.4293 21.6393 16.3084C21.633 16.263 21.6172 16.1912 21.592 16.0929C21.5668 15.987 21.5541 15.9152 21.5541 15.8774C21.5541 15.832 21.5604 15.798 21.5731 15.7753C21.592 15.7527 21.6078 15.7224 21.6204 15.6846C21.5447 15.3217 21.4816 14.955 21.4311 14.5846C21.387 14.2141 21.3428 13.8436 21.2986 13.4732C21.2608 13.1027 21.2135 12.736 21.1567 12.3731C21.1062 12.0027 21.0337 11.6398 20.939 11.2844V11.1824C20.939 10.9404 20.8602 10.7476 20.7024 10.604C20.734 10.4906 20.7498 10.3961 20.7498 10.3205C20.7498 10.2222 20.7371 10.1277 20.7119 10.0369C20.693 9.94621 20.6709 9.85549 20.6457 9.76476C20.6204 9.67404 20.6015 9.58331 20.5889 9.49258C20.5826 9.40186 20.5889 9.31113 20.6078 9.22041C20.5384 9.12968 20.4816 9.03139 20.4375 8.92555C20.3933 8.8197 20.3365 8.72897 20.2671 8.65337L20.2577 8.58533C20.2577 8.54752 20.2671 8.5135 20.2861 8.48326C20.2987 8.45302 20.305 8.41899 20.305 8.38119C20.305 8.32827 20.2955 8.28291 20.2766 8.2451C20.2514 8.2073 20.2261 8.17328 20.2009 8.14304C20.1694 8.11279 20.1441 8.08255 20.1252 8.05231C20.1 8.02207 20.0873 7.98805 20.0873 7.95024C20.0873 7.85952 20.1126 7.78769 20.163 7.73477C20.2135 7.68185 20.2703 7.63648 20.3334 7.59868C20.3965 7.55332 20.4564 7.50796 20.5132 7.46259C20.5763 7.41723 20.6173 7.35297 20.6362 7.2698C20.6867 7.28492 20.7371 7.29626 20.7876 7.30382C20.8381 7.30382 20.8886 7.31894 20.939 7.34919C20.9453 7.34163 20.9485 7.33028 20.9485 7.31516C20.9485 7.29248 20.917 7.27358 20.8539 7.25846C20.7971 7.23578 20.7592 7.20932 20.7403 7.17908C20.7908 7.16395 20.8286 7.15639 20.8539 7.15639C20.98 7.15639 21.0999 7.1942 21.2135 7.2698C21.3333 7.34541 21.4469 7.42479 21.5541 7.50796C21.5668 7.576 21.5699 7.64783 21.5636 7.72343C21.5573 7.79147 21.5762 7.85574 21.6204 7.91622C21.6141 7.95402 21.6109 7.98805 21.6109 8.01829C21.6172 8.04853 21.6204 8.07877 21.6204 8.10901C21.6204 8.14682 21.6141 8.18084 21.6015 8.21108C21.5951 8.23376 21.5794 8.2451 21.5541 8.2451C21.5983 8.33583 21.6267 8.44546 21.6393 8.57398C21.6582 8.70251 21.674 8.83482 21.6866 8.97091C21.7056 9.107 21.7276 9.23931 21.7529 9.36784C21.7781 9.49636 21.8254 9.60977 21.8948 9.70806C21.8822 9.75342 21.8727 9.79878 21.8664 9.84415C21.8664 9.88951 21.8664 9.93865 21.8664 9.99158C21.8664 10.2335 21.8917 10.4717 21.9421 10.706C21.9926 10.9404 22.0178 11.1786 22.0178 11.4205C22.0178 11.5642 21.9989 11.6965 21.9611 11.8174C21.9611 11.8855 21.98 11.9422 22.0178 11.9875C22.0557 12.0253 22.0809 12.0783 22.0935 12.1463C22.062 12.237 22.0462 12.324 22.0462 12.4071C22.0462 12.581 22.0746 12.7474 22.1314 12.9061C22.1882 13.0574 22.2166 13.2161 22.2166 13.3825C22.2166 13.4354 22.2103 13.4845 22.1976 13.5299C22.185 13.5752 22.1724 13.6168 22.1598 13.6546C22.2166 13.7227 22.245 13.8096 22.245 13.9155C22.2513 14.0213 22.2797 14.1083 22.3301 14.1763C22.3238 14.2141 22.3175 14.2519 22.3112 14.2897C22.3112 14.3275 22.2954 14.3578 22.2639 14.3804C22.2954 14.4334 22.3112 14.5052 22.3112 14.5959C22.3175 14.6791 22.3459 14.7282 22.3964 14.7433C22.3838 14.7811 22.3743 14.8152 22.368 14.8454C22.3617 14.8756 22.3585 14.9097 22.3585 14.9475C22.3585 15.0306 22.368 15.1062 22.3869 15.1743L22.4437 15.3784C22.4626 15.4465 22.4752 15.5183 22.4815 15.5939C22.4942 15.6695 22.4878 15.7527 22.4626 15.8434C22.4878 15.8888 22.5068 15.9417 22.5194 16.0022C22.5383 16.0626 22.5541 16.1269 22.5667 16.195C22.5793 16.2554 22.5983 16.3121 22.6235 16.3651C22.6487 16.4104 22.6866 16.4407 22.737 16.4558C22.7434 16.5012 22.7276 16.5238 22.6897 16.5238C22.6582 16.5238 22.6424 16.5427 22.6424 16.5805C22.6424 16.641 22.6613 16.7166 22.6992 16.8074C22.737 16.8905 22.7717 16.951 22.8033 16.9888C22.797 17.019 22.7938 17.0493 22.7938 17.0795V17.1816C22.7938 17.2874 22.8064 17.3971 22.8317 17.5105C22.8569 17.6163 22.879 17.7222 22.8979 17.828C22.9232 17.9414 22.9421 18.0511 22.9547 18.1569C22.9673 18.2627 22.961 18.361 22.9358 18.4518C22.9862 18.5576 23.0304 18.671 23.0683 18.792C23.1061 18.9129 23.166 19.015 23.2481 19.0982C23.2481 19.2267 23.2701 19.3477 23.3143 19.4611C23.3585 19.582 23.4152 19.6955 23.4846 19.8013C23.5477 19.8013 23.595 19.7748 23.6266 19.7219C23.6581 19.6766 23.6834 19.6236 23.7023 19.5631C23.7212 19.5027 23.7433 19.446 23.7685 19.393C23.7938 19.3401 23.8348 19.3099 23.8916 19.3023C23.8979 19.2267 23.9136 19.1624 23.9389 19.1095C23.9704 19.0642 23.9988 19.015 24.024 18.9621C24.0556 18.9092 24.0808 18.8525 24.0998 18.792C24.125 18.7315 24.1344 18.6559 24.1281 18.5652L24.2322 18.5311C24.2638 18.327 24.3111 18.1418 24.3742 17.9754C24.4436 17.8167 24.5193 17.6503 24.6013 17.4765V17.4198C24.6013 17.3441 24.6108 17.2799 24.6297 17.227C24.6486 17.174 24.6518 17.106 24.6392 17.0228C24.6833 17.0077 24.7149 16.9775 24.7338 16.9321C24.7527 16.8867 24.7685 16.8414 24.7811 16.796C24.7937 16.7431 24.8063 16.6939 24.819 16.6486C24.8379 16.5957 24.8663 16.5579 24.9041 16.5352V16.4444C24.8978 16.3764 24.901 16.3121 24.9136 16.2517C24.9325 16.1836 24.9294 16.1156 24.9041 16.0475C24.9546 16.0248 24.9924 15.987 25.0177 15.9341C25.0429 15.8812 25.0618 15.8245 25.0745 15.764C25.0934 15.7035 25.1029 15.6393 25.1029 15.5712C25.1092 15.5032 25.1123 15.4427 25.1123 15.3898C25.1565 15.3217 25.188 15.2423 25.2069 15.1516C25.2259 15.0533 25.2416 14.955 25.2543 14.8567C25.2669 14.7585 25.2827 14.664 25.3016 14.5732C25.3268 14.4825 25.3647 14.4031 25.4151 14.3351C25.4025 14.2973 25.3962 14.2632 25.3962 14.233V14.1309C25.3962 13.9873 25.4151 13.8588 25.453 13.7454C25.4908 13.6244 25.5255 13.4959 25.5571 13.3598C25.6391 13.0195 25.6959 12.6718 25.7274 12.3164C25.7653 11.9535 25.8189 11.5982 25.8883 11.2504C25.8946 11.2126 25.9072 11.1521 25.9262 11.0689C25.9451 10.9858 25.964 10.9026 25.9829 10.8194C26.0019 10.7287 26.0176 10.6493 26.0303 10.5813C26.0492 10.5057 26.0586 10.4565 26.0586 10.4339C26.0586 10.3734 26.046 10.3318 26.0208 10.3091C26.0019 10.2864 25.9924 10.2486 25.9924 10.1957C26.0303 10.1277 26.0555 10.0407 26.0681 9.93487C26.0807 9.82902 26.0902 9.7194 26.0965 9.60599C26.1028 9.48502 26.1028 9.37162 26.0965 9.26577C26.0965 9.15236 26.0965 9.05408 26.0965 8.97091C26.0965 8.88774 26.1123 8.7819 26.1438 8.65337C26.1754 8.52484 26.1974 8.41143 26.2101 8.31315C26.2416 8.05609 26.2605 7.80281 26.2668 7.55332C26.2794 7.29626 26.2921 7.03921 26.3047 6.78215C26.3488 6.75191 26.3804 6.71411 26.3993 6.66874C26.4182 6.61582 26.4277 6.5629 26.4277 6.50997C26.4277 6.42681 26.4182 6.34742 26.3993 6.27182C26.3867 6.19621 26.3804 6.11683 26.3804 6.03366C26.3804 5.99586 26.3835 5.95806 26.3899 5.92025C26.3962 5.87489 26.4119 5.83709 26.4372 5.80685C26.4309 5.75392 26.4246 5.701 26.4182 5.64808C26.4182 5.59515 26.4025 5.54979 26.3709 5.51199C26.4025 5.4137 26.4182 5.31542 26.4182 5.21713C26.4182 5.1264 26.4088 5.03568 26.3899 4.94495C26.3772 4.85423 26.3709 4.75972 26.3709 4.66143C26.3709 4.47242 26.4372 4.33633 26.5697 4.25317H26.7021C26.7652 4.25317 26.8283 4.24939 26.8914 4.24183C26.9545 4.23427 27.0207 4.21159 27.0901 4.17378C27.1721 4.27963 27.2573 4.39682 27.3456 4.52535C27.434 4.64631 27.5097 4.77862 27.5728 4.92227C27.6358 5.06592 27.6832 5.21335 27.7147 5.36456C27.7463 5.51577 27.7494 5.67454 27.7242 5.84087C27.7494 5.90135 27.7652 5.96184 27.7715 6.02232C27.7778 6.08281 27.7967 6.14329 27.8283 6.20377ZM25.8978 12.3845C25.8725 12.3769 25.8536 12.3656 25.841 12.3504C25.8347 12.3278 25.8158 12.3126 25.7842 12.3051V12.4298H25.8599L25.8978 12.3845Z" stroke="url(#paint6_linear_1102_1178)"/>
<path d="M33.8469 11.0236C33.809 11.0916 33.7869 11.1672 33.7806 11.2504C33.7743 11.3336 33.7712 11.4092 33.7712 11.4772C33.7712 11.5679 33.7712 11.6587 33.7712 11.7494C33.7775 11.8326 33.7806 11.9157 33.7806 11.9989V12.169C33.768 12.2219 33.7491 12.2748 33.7239 12.3278C33.6986 12.3807 33.6797 12.4336 33.6671 12.4865C33.5788 12.7663 33.5346 13.046 33.5346 13.3257V13.3484C33.5031 13.4392 33.4715 13.5223 33.44 13.5979C33.4147 13.6735 33.3895 13.7491 33.3643 13.8247C33.339 13.8928 33.3201 13.9684 33.3075 14.0516C33.2949 14.1272 33.2917 14.2179 33.298 14.3237C33.2097 14.5883 33.093 14.8303 32.9479 15.0495C32.8028 15.2612 32.6608 15.4805 32.522 15.7073C32.3895 15.7678 32.2665 15.8472 32.153 15.9455C32.0457 16.0437 31.9416 16.1534 31.8407 16.2743C31.6451 16.3499 31.4527 16.4369 31.2634 16.5352C31.0742 16.6335 30.9038 16.7658 30.7524 16.9321C30.6325 16.9472 30.5127 16.9699 30.3928 17.0001C30.2729 17.0304 30.1562 17.0757 30.0427 17.1362H29.9291C29.8723 17.1362 29.8313 17.1211 29.8061 17.0909C29.7241 17.1438 29.6389 17.1816 29.5506 17.2043C29.4622 17.2194 29.3739 17.227 29.2856 17.227C29.172 17.227 29.0585 17.2194 28.9449 17.2043C28.8377 17.1816 28.7273 17.1589 28.6137 17.1362C28.5506 17.0304 28.4623 16.951 28.3487 16.8981C28.2352 16.8376 28.1342 16.7809 28.0459 16.728C27.863 16.4255 27.7305 16.1345 27.6485 15.8547C27.5664 15.5674 27.4813 15.2461 27.393 14.8908C27.4056 14.7849 27.4277 14.6829 27.4592 14.5846C27.4907 14.4787 27.5034 14.3653 27.4971 14.2443C27.6106 13.8512 27.7589 13.4959 27.9418 13.1783C28.1311 12.8532 28.3456 12.5432 28.5853 12.2484C28.5853 12.203 28.5916 12.1652 28.6042 12.135C28.6232 12.1047 28.6263 12.0594 28.6137 11.9989C28.62 12.0064 28.6326 12.0102 28.6516 12.0102C28.702 12.0102 28.7336 11.9951 28.7462 11.9649C28.7588 11.9271 28.762 11.8855 28.7557 11.8401C28.9828 11.6662 29.1878 11.4659 29.3708 11.2391C29.56 11.0122 29.7745 10.8232 30.0143 10.672C30.0332 10.604 30.0647 10.5473 30.1089 10.5019C30.1531 10.4565 30.1878 10.4036 30.213 10.3431C30.4149 10.2751 30.5978 10.173 30.7619 10.0369C30.9259 9.90085 31.0994 9.77988 31.2823 9.67404C31.3833 9.60599 31.4779 9.56063 31.5662 9.53795C31.6609 9.5077 31.7618 9.47746 31.8691 9.44722C31.9069 9.4321 31.9416 9.42076 31.9732 9.4132C32.0047 9.40564 32.0394 9.40186 32.0773 9.40186C32.1908 9.40186 32.3012 9.42832 32.4085 9.48124C32.5157 9.52661 32.6261 9.54929 32.7397 9.54929C32.7712 9.54929 32.7965 9.54929 32.8154 9.54929C32.8406 9.54173 32.8659 9.53417 32.8911 9.52661C32.9983 9.68538 33.134 9.80634 33.298 9.88951C33.3359 10.0029 33.38 10.1012 33.4305 10.1844C33.4873 10.2675 33.5441 10.3507 33.6008 10.4339C33.6576 10.5095 33.7081 10.5964 33.7522 10.6947C33.8027 10.7854 33.8343 10.8951 33.8469 11.0236ZM32.9006 11.6133C32.9006 11.5755 32.8974 11.5415 32.8911 11.5112C32.828 11.4886 32.7681 11.4583 32.7113 11.4205C32.6545 11.3827 32.5914 11.3638 32.522 11.3638C32.4779 11.3638 32.4337 11.3751 32.3895 11.3978C32.3832 11.3449 32.3643 11.3071 32.3328 11.2844C32.3075 11.2617 32.276 11.2428 32.2381 11.2277C32.2066 11.205 32.1719 11.1899 32.134 11.1824C32.1025 11.1672 32.0741 11.1445 32.0489 11.1143C32.0299 11.0538 32.0079 10.9933 31.9826 10.9329C31.9637 10.8648 31.9258 10.8157 31.8691 10.7854C31.8123 10.8535 31.746 10.9102 31.6703 10.9555C31.5946 10.9933 31.5158 11.0311 31.4338 11.0689C31.3581 11.1067 31.2823 11.1521 31.2066 11.205C31.1372 11.258 31.0773 11.3222 31.0268 11.3978H30.8565C30.8186 11.481 30.765 11.5453 30.6956 11.5906C30.6262 11.6284 30.5663 11.6851 30.5158 11.7607C30.4149 11.8212 30.3202 11.8968 30.2319 11.9875C30.1499 12.0707 30.0679 12.1614 29.9859 12.2597C29.9039 12.3504 29.8219 12.445 29.7398 12.5432C29.6641 12.6415 29.5821 12.7323 29.4938 12.8154C29.4118 13.0271 29.3203 13.2123 29.2194 13.3711C29.1247 13.5223 29.0332 13.6773 28.9449 13.8361C28.8629 13.9949 28.7904 14.1687 28.7273 14.3578C28.6705 14.5392 28.6421 14.766 28.6421 15.0382V15.1516C28.6421 15.1894 28.6453 15.2272 28.6516 15.265C28.7336 15.3709 28.7998 15.4843 28.8503 15.6052C28.9071 15.7262 28.9986 15.8131 29.1247 15.8661C29.2509 15.9266 29.3834 15.953 29.5222 15.9455C29.6673 15.9379 29.8061 15.9568 29.9386 16.0022C30.2414 15.9341 30.5316 15.8245 30.8092 15.6733C31.0931 15.5145 31.3612 15.3255 31.6136 15.1062C31.6514 15.0684 31.6956 15.0306 31.746 14.9928C31.7965 14.9475 31.8375 14.9021 31.8691 14.8567C31.9006 14.8189 31.9258 14.7774 31.9448 14.732C31.97 14.6866 31.9952 14.6451 32.0205 14.6073C32.0709 14.509 32.1277 14.4107 32.1908 14.3124C32.2539 14.2141 32.3201 14.1234 32.3895 14.0402C32.4211 13.8739 32.4621 13.7151 32.5126 13.5639C32.563 13.4051 32.6135 13.2501 32.664 13.0989C32.7144 12.9477 32.7555 12.7927 32.787 12.634C32.8249 12.4752 32.8438 12.3089 32.8438 12.135C32.8438 12.0972 32.8406 12.0556 32.8343 12.0102C32.8343 11.9649 32.8312 11.9233 32.8249 11.8855C32.8753 11.8023 32.9006 11.7116 32.9006 11.6133Z" stroke="url(#paint7_linear_1102_1178)"/>
<path d="M42.6477 10.2978C42.6225 10.3961 42.5814 10.4868 42.5247 10.57L42.3638 10.8081C42.3133 10.8837 42.2692 10.9669 42.2313 11.0576C42.1998 11.1408 42.1903 11.2391 42.2029 11.3525C42.1903 11.3525 42.1745 11.3525 42.1556 11.3525C42.1367 11.3449 42.1209 11.3411 42.1083 11.3411C42.0073 11.3411 41.9285 11.3714 41.8717 11.4318C41.8212 11.4848 41.7518 11.5301 41.6635 11.5679C41.6509 11.5226 41.6351 11.481 41.6162 11.4432C41.5973 11.3978 41.5689 11.3676 41.531 11.3525C41.3796 11.3903 41.2282 11.4205 41.0768 11.4432C40.9254 11.4583 40.774 11.481 40.6226 11.5112C40.5532 11.5264 40.4838 11.549 40.4144 11.5793C40.345 11.602 40.2724 11.6246 40.1967 11.6473C40.1589 11.6624 40.1179 11.67 40.0737 11.67C40.0295 11.6624 39.9854 11.6624 39.9412 11.67C39.7898 11.6776 39.6258 11.6927 39.4491 11.7154C39.2725 11.7305 39.1147 11.7872 38.976 11.8855C38.9129 11.8704 38.8466 11.859 38.7772 11.8515C38.7078 11.8439 38.6384 11.8401 38.569 11.8401C38.4176 11.8401 38.2504 11.859 38.0675 11.8968C37.8908 11.9271 37.7331 11.9913 37.5943 12.0896C37.5628 12.0745 37.5281 12.0631 37.4902 12.0556C37.4587 12.048 37.4208 12.0442 37.3767 12.0442C37.364 12.0442 37.3546 12.048 37.3483 12.0556C37.342 12.0556 37.3325 12.0556 37.3199 12.0556C37.3136 12.1236 37.3199 12.1917 37.3388 12.2597C37.364 12.3202 37.4051 12.3693 37.4618 12.4071C37.4366 12.4903 37.424 12.581 37.424 12.6793C37.424 12.8079 37.4303 12.9364 37.4429 13.0649C37.4618 13.1934 37.4713 13.322 37.4713 13.4505C37.4713 13.5941 37.4555 13.7076 37.424 13.7907C37.4871 14.0175 37.5186 14.2595 37.5186 14.5165C37.5186 14.6073 37.5123 14.698 37.4997 14.7887C37.4934 14.8719 37.4902 14.9626 37.4902 15.0609C37.4902 15.144 37.5155 15.2121 37.5659 15.265C37.6164 15.3104 37.6416 15.3746 37.6416 15.4578C37.6416 15.488 37.6353 15.5183 37.6227 15.5485C37.711 15.5258 37.7962 15.4956 37.8782 15.4578C37.9602 15.4124 38.0454 15.3898 38.1337 15.3898C38.1842 15.3898 38.2315 15.4011 38.2757 15.4238C38.3261 15.4465 38.3703 15.4767 38.4082 15.5145C38.4019 15.5523 38.3955 15.5939 38.3892 15.6393C38.3892 15.6846 38.3892 15.73 38.3892 15.7753C38.3892 15.8585 38.3892 15.9379 38.3892 16.0135C38.3955 16.0815 38.4019 16.1571 38.4082 16.2403C38.3577 16.3462 38.2978 16.4407 38.2284 16.5238C38.1653 16.607 38.1211 16.7128 38.0959 16.8414C38.0012 16.8414 37.9161 16.8678 37.8404 16.9208C37.771 16.9661 37.7047 17.019 37.6416 17.0795C37.5785 17.1325 37.5155 17.1854 37.4524 17.2383C37.3893 17.2837 37.3199 17.3063 37.2442 17.3063C37.1495 17.3063 37.0833 17.2912 37.0455 17.261C37.0076 17.2232 36.9792 17.1854 36.9603 17.1476C36.9414 17.1098 36.9224 17.0757 36.9035 17.0455C36.8909 17.0153 36.8593 17.0039 36.8089 17.0115C36.7963 16.9132 36.771 16.8225 36.7332 16.7393C36.6953 16.6486 36.6543 16.5616 36.6101 16.4785C36.5723 16.3953 36.5313 16.3121 36.4871 16.229C36.4493 16.1382 36.4209 16.0475 36.402 15.9568C36.3641 15.7602 36.3483 15.5561 36.3546 15.3444C36.3609 15.1327 36.3326 14.9286 36.2695 14.732C36.2821 14.6262 36.2915 14.5203 36.2979 14.4145C36.3042 14.3011 36.3073 14.1914 36.3073 14.0856C36.3073 13.8739 36.301 13.666 36.2884 13.4618C36.2821 13.2501 36.2758 13.0347 36.2695 12.8154C36.2253 12.7474 36.1969 12.6718 36.1843 12.5886C36.178 12.4979 36.1717 12.4109 36.1654 12.3278C36.1464 12.3051 36.1244 12.2824 36.0991 12.2597C36.0802 12.237 36.0676 12.2068 36.0613 12.169C36.0108 12.1539 35.973 12.1463 35.9477 12.1463C35.8594 12.1463 35.7837 12.1728 35.7206 12.2257C35.6638 12.2711 35.6102 12.2937 35.5597 12.2937C35.5093 12.2937 35.4619 12.2862 35.4178 12.2711C35.3736 12.2559 35.3295 12.2484 35.2853 12.2484C35.2474 12.2484 35.2254 12.2597 35.2191 12.2824C35.2191 12.2975 35.2064 12.3126 35.1812 12.3278C35.1623 12.3429 35.1181 12.358 35.0487 12.3731C34.9793 12.3882 34.9005 12.4034 34.8121 12.4185C34.7301 12.4261 34.6481 12.4336 34.5661 12.4412C34.4904 12.4487 34.4399 12.4525 34.4147 12.4525C34.3137 12.4525 34.238 12.4298 34.1876 12.3845C34.1308 12.3315 34.0645 12.2748 33.9888 12.2144C34.0014 12.169 34.0078 12.1388 34.0078 12.1236C34.0078 12.048 33.9888 11.9875 33.951 11.9422C33.9131 11.8893 33.8942 11.8439 33.8942 11.8061C33.8942 11.7229 33.9226 11.6587 33.9794 11.6133C34.0298 11.5679 34.0582 11.4961 34.0645 11.3978C34.2096 11.3222 34.3579 11.2655 34.5093 11.2277C34.6607 11.1899 34.8153 11.1597 34.973 11.137C35.1307 11.1143 35.2853 11.0878 35.4367 11.0576C35.5944 11.0274 35.749 10.9782 35.9004 10.9102C35.9446 10.9177 35.9856 10.9253 36.0234 10.9329C36.0676 10.9329 36.1117 10.9329 36.1559 10.9329C36.3452 10.9329 36.5313 10.9102 36.7142 10.8648C36.9035 10.8119 37.0959 10.7854 37.2915 10.7854C37.342 10.7854 37.3924 10.7892 37.4429 10.7968C37.4934 10.8043 37.5438 10.8157 37.5943 10.8308C37.8467 10.7854 38.0959 10.7363 38.3419 10.6834C38.5943 10.6304 38.8529 10.5851 39.1179 10.5473C39.2441 10.5321 39.3671 10.5208 39.487 10.5132C39.6131 10.4981 39.7393 10.4792 39.8655 10.4565C39.9097 10.449 39.9412 10.4376 39.9601 10.4225C39.9854 10.3998 39.998 10.3583 39.998 10.2978C40.0548 10.328 40.1179 10.3431 40.1872 10.3431C40.2945 10.3431 40.3986 10.3205 40.4995 10.2751C40.6005 10.2297 40.7046 10.207 40.8118 10.207C40.8371 10.207 40.8591 10.2108 40.8781 10.2184C40.897 10.2184 40.9159 10.2184 40.9348 10.2184C40.979 10.2184 41.0011 10.1957 41.0011 10.1503C41.0074 10.0974 41.0389 10.0634 41.0957 10.0483C41.1399 10.0332 41.203 10.0218 41.285 10.0143C41.367 10.0067 41.4522 9.99914 41.5405 9.99158C41.6351 9.97645 41.7203 9.96133 41.796 9.94621C41.878 9.92353 41.9379 9.89329 41.9758 9.85549L42.042 9.73074C42.1556 9.7383 42.2376 9.79878 42.2881 9.91219C42.3449 10.018 42.3764 10.1352 42.3827 10.2638C42.408 10.294 42.4426 10.3091 42.4868 10.3091C42.5373 10.3016 42.5814 10.2978 42.6193 10.2978H42.6477Z" stroke="url(#paint8_linear_1102_1178)"/>
<path d="M50.4359 6.78215C50.3855 6.81995 50.3318 6.84263 50.2751 6.85019C50.2183 6.85775 50.1583 6.8691 50.0953 6.88422C50.0385 6.89178 49.9848 6.9069 49.9344 6.92958C49.8839 6.95226 49.8461 6.99384 49.8208 7.05433C49.7577 6.97872 49.6883 6.91446 49.6126 6.86154C49.5369 6.80861 49.4612 6.75191 49.3855 6.69142C49.3224 6.71411 49.2593 6.74435 49.1962 6.78215C49.1332 6.81995 49.0701 6.83885 49.007 6.83885C48.9628 6.83885 48.9187 6.81995 48.8745 6.78215C48.824 6.82751 48.7641 6.86531 48.6947 6.89556C48.6316 6.91824 48.5622 6.94092 48.4865 6.9636C48.4171 6.98628 48.3509 7.01652 48.2878 7.05433C48.231 7.09213 48.19 7.14883 48.1648 7.22444C48.1521 7.18664 48.1206 7.17529 48.0701 7.19042C48.026 7.20554 48.0007 7.18664 47.9944 7.13371C47.7925 7.21688 47.5875 7.2887 47.3793 7.34919C47.1711 7.40967 46.9629 7.47393 46.7547 7.54198C46.5465 7.61002 46.3415 7.68563 46.1396 7.76879C45.9377 7.85196 45.7422 7.95402 45.5529 8.07499C45.5466 8.08255 45.5434 8.09389 45.5434 8.10901C45.5434 8.18462 45.5529 8.25644 45.5718 8.32449C45.5908 8.39253 45.6065 8.4568 45.6191 8.51728C45.5056 8.97847 45.4299 9.44722 45.392 9.92353C45.3542 10.3998 45.3037 10.8686 45.2406 11.3298V11.3751C45.2406 11.4129 45.2532 11.4432 45.2785 11.4659C45.3037 11.481 45.3163 11.5112 45.3163 11.5566L45.3069 11.5793C45.2753 11.602 45.2532 11.636 45.2406 11.6813C45.228 11.7191 45.2217 11.7607 45.2217 11.8061C45.2217 11.8363 45.228 11.8817 45.2406 11.9422C45.1334 12.3731 45.0608 12.8116 45.023 13.2577C44.9914 13.7038 44.9504 14.1498 44.8999 14.5959L44.8148 15.3444C44.8022 15.3898 44.7895 15.4351 44.7769 15.4805C44.7706 15.5183 44.7675 15.5599 44.7675 15.6052C44.7675 15.8472 44.7801 16.0853 44.8053 16.3197C44.8368 16.5465 44.8463 16.7809 44.8337 17.0228C44.8905 17.1287 44.9189 17.2307 44.9189 17.329C44.9189 17.3668 44.9157 17.4046 44.9094 17.4424C44.9094 17.4802 44.9062 17.518 44.8999 17.5558C44.982 17.6541 45.0766 17.7222 45.1838 17.76C45.2974 17.8053 45.3983 17.8734 45.4867 17.9641V18.0095C45.4867 18.0851 45.4772 18.1569 45.4583 18.2249C45.4393 18.3005 45.4236 18.3762 45.4109 18.4518C45.3983 18.5122 45.3826 18.5992 45.3636 18.7126C45.351 18.826 45.3321 18.9016 45.3069 18.9394C45.2753 18.9923 45.228 19.0377 45.1649 19.0755C45.1081 19.1209 45.0513 19.1435 44.9946 19.1435C44.9756 19.1435 44.9473 19.1322 44.9094 19.1095C44.8779 19.0868 44.8526 19.0679 44.8337 19.0528C44.8022 19.0528 44.7611 19.0717 44.7107 19.1095C44.6602 19.1473 44.6097 19.1662 44.5593 19.1662C44.534 19.1662 44.5119 19.1624 44.493 19.1549C44.4741 19.1549 44.452 19.1473 44.4268 19.1322C44.4015 19.0566 44.3637 18.9886 44.3132 18.9281C44.2691 18.8751 44.2154 18.8222 44.1523 18.7693C44.1586 18.6635 44.1429 18.5841 44.105 18.5311C44.0672 18.4782 44.0293 18.4102 43.9915 18.327C43.9788 18.2212 43.9662 18.1002 43.9536 17.9641C43.9473 17.828 43.9 17.7297 43.8117 17.6692C43.8432 17.6163 43.859 17.5445 43.859 17.4538C43.859 17.416 43.8527 17.3744 43.8401 17.329C43.8337 17.2837 43.8148 17.2496 43.7833 17.227V17.2043C43.777 17.1665 43.7864 17.14 43.8117 17.1249C43.8432 17.1022 43.859 17.072 43.859 17.0342V16.9888C43.8148 16.7469 43.7927 16.4936 43.7927 16.229C43.7927 15.9795 43.799 15.7338 43.8117 15.4918C43.8243 15.2423 43.8243 14.9928 43.8117 14.7433C43.8495 14.7055 43.8779 14.6451 43.8968 14.5619C43.9221 14.4787 43.941 14.388 43.9536 14.2897C43.9662 14.1914 43.9725 14.0969 43.9725 14.0062C43.9788 13.9079 43.9852 13.8285 43.9915 13.768C44.023 13.3371 44.0735 12.9137 44.1429 12.4979C44.2123 12.0745 44.2533 11.6435 44.2659 11.205C44.2974 11.1445 44.3164 11.0652 44.3227 10.9669C44.329 10.8686 44.3321 10.7665 44.3321 10.6607C44.3321 10.5473 44.3385 10.4376 44.3511 10.3318C44.3637 10.226 44.3889 10.1352 44.4268 10.0596C44.4268 9.84793 44.4425 9.63623 44.4741 9.42454C44.5056 9.20529 44.5214 8.98603 44.5214 8.76678C44.5214 8.66093 44.5119 8.5513 44.493 8.4379C44.4299 8.40765 44.3731 8.39253 44.3227 8.39253C44.2533 8.39253 44.1807 8.41143 44.105 8.44924C44.0356 8.47948 43.9852 8.52862 43.9536 8.59667C43.8148 8.60423 43.6792 8.63069 43.5467 8.67605C43.4142 8.72141 43.2817 8.7441 43.1492 8.7441H43.0546C43.0294 8.7441 43.001 8.74031 42.9694 8.73275C42.9253 8.75544 42.878 8.77434 42.8275 8.78946C42.7833 8.80458 42.7644 8.84994 42.7707 8.92555C42.5751 8.94823 42.3827 8.99737 42.1935 9.07298C42.0105 9.14858 41.8275 9.23175 41.6446 9.32247C41.4616 9.40564 41.2787 9.48502 41.0957 9.56063C40.9065 9.63623 40.714 9.68538 40.5185 9.70806C40.4491 9.74586 40.4049 9.82524 40.386 9.94621C40.2472 9.93109 40.1305 9.88951 40.0358 9.82146C39.9412 9.75342 39.8308 9.68916 39.7046 9.62867C39.6668 9.4699 39.6478 9.31869 39.6478 9.17504C39.6478 8.98603 39.6794 8.80458 39.7425 8.63069C39.8056 8.4568 39.9065 8.32827 40.0453 8.2451C40.0768 8.25266 40.1052 8.26022 40.1305 8.26778C40.1557 8.26778 40.1841 8.26778 40.2156 8.26778C40.3166 8.26778 40.4175 8.2451 40.5185 8.19974C40.6194 8.15438 40.7235 8.1317 40.8307 8.1317C40.8623 8.1317 40.897 8.14304 40.9348 8.16572C40.979 8.13548 41.0358 8.11279 41.1052 8.09767C41.1683 8.07499 41.2282 8.05609 41.285 8.04097C41.3481 8.01829 41.4049 7.98805 41.4553 7.95024C41.5058 7.91244 41.5373 7.85952 41.55 7.79147C41.5815 7.82172 41.6162 7.84062 41.654 7.84818C41.6919 7.85574 41.7298 7.85952 41.7676 7.85952C41.8496 7.85952 41.9348 7.84062 42.0231 7.80281C42.1114 7.76501 42.1808 7.70453 42.2313 7.62136C42.2755 7.68185 42.3386 7.71209 42.4206 7.71209C42.5089 7.71209 42.5941 7.68563 42.6761 7.6327C42.7644 7.57222 42.8496 7.54198 42.9316 7.54198C42.9947 7.54198 43.042 7.56844 43.0735 7.62136C43.1429 7.55332 43.2249 7.5004 43.3196 7.46259C43.4142 7.42479 43.5088 7.39077 43.6035 7.36053C43.7044 7.33028 43.7959 7.29626 43.8779 7.25846C43.9662 7.22066 44.0356 7.16773 44.0861 7.09969C44.1176 7.10725 44.1681 7.11103 44.2375 7.11103C44.3448 7.11103 44.4457 7.09591 44.5403 7.06567C44.6413 7.02787 44.7422 6.99384 44.8432 6.9636L45.0419 6.94092C45.0924 6.93336 45.1365 6.91446 45.1744 6.88422C45.2185 6.85397 45.2627 6.82751 45.3069 6.80483C45.351 6.78215 45.3952 6.76325 45.4393 6.74813C45.4898 6.73301 45.5497 6.72923 45.6191 6.73679C45.7706 6.6385 45.9314 6.5629 46.1018 6.50997C46.2721 6.45705 46.4456 6.41169 46.6222 6.37388C46.7989 6.32852 46.9724 6.27938 47.1427 6.22645C47.3131 6.16597 47.4739 6.07902 47.6253 5.96562H47.6537C47.7799 5.96562 47.9029 5.93916 48.0228 5.88623C48.149 5.83331 48.2657 5.76148 48.3729 5.67076C48.3919 5.67832 48.4108 5.6821 48.4297 5.6821H48.496C48.6726 5.6821 48.8429 5.65186 49.007 5.59137C49.1773 5.53089 49.354 5.50065 49.5369 5.50065C49.6442 5.50065 49.7293 5.51955 49.7924 5.55735C49.8555 5.58759 49.9123 5.62918 49.9628 5.6821C50.0132 5.72746 50.0669 5.77283 50.1236 5.81819C50.1804 5.86355 50.253 5.89757 50.3413 5.92025C50.3981 6.04878 50.4265 6.18865 50.4265 6.33986C50.4265 6.48351 50.4296 6.63094 50.4359 6.78215Z" stroke="url(#paint9_linear_1102_1178)"/>
<path d="M54.5903 16.762C54.5714 16.8678 54.5304 16.9548 54.4673 17.0228C54.4105 17.0833 54.3411 17.1325 54.2591 17.1703C54.1771 17.2081 54.0919 17.2345 54.0036 17.2496C53.9216 17.2572 53.8458 17.261 53.7764 17.261C53.7449 17.261 53.7134 17.261 53.6818 17.261C53.6566 17.2534 53.6282 17.2496 53.5966 17.2496C53.5651 17.2496 53.5493 17.2685 53.5493 17.3063C53.5493 17.3441 53.5336 17.3706 53.502 17.3857C53.4705 17.3706 53.4389 17.3593 53.4074 17.3517C53.3758 17.3441 53.3443 17.3404 53.3128 17.3404C53.2686 17.3404 53.2244 17.3441 53.1803 17.3517C53.1424 17.3593 53.1046 17.363 53.0667 17.363C53.0162 17.363 52.9784 17.3555 52.9531 17.3404C52.9342 17.3252 52.9153 17.3101 52.8964 17.295C52.8838 17.2723 52.868 17.2496 52.8491 17.227C52.8364 17.2043 52.8144 17.1854 52.7828 17.1703C52.7386 17.1476 52.7008 17.1438 52.6693 17.1589C52.644 17.174 52.603 17.1514 52.5462 17.0909C52.4705 17.0153 52.4043 16.9245 52.3475 16.8187C52.297 16.7053 52.2466 16.5881 52.1961 16.4671C52.1456 16.3462 52.092 16.2252 52.0352 16.1042C51.9784 15.9833 51.9122 15.8774 51.8365 15.7867H51.7608C51.6472 15.7867 51.5684 15.8434 51.5242 15.9568C51.4927 15.9341 51.4611 15.9077 51.4296 15.8774C51.398 15.8396 51.3633 15.8094 51.3255 15.7867C51.1804 15.8396 51.029 15.885 50.8712 15.9228C50.7135 15.9606 50.5558 15.9795 50.3981 15.9795H50.2656C50.2277 15.9795 50.1867 15.9719 50.1426 15.9568C50.0795 15.987 50.0227 16.0248 49.9722 16.0702C49.9218 16.108 49.865 16.1269 49.8019 16.1269C49.764 16.1269 49.7199 16.1118 49.6694 16.0815C49.6316 16.0815 49.6126 16.1004 49.6126 16.1382C49.6189 16.1761 49.6 16.195 49.5558 16.195H49.4707C49.3824 16.195 49.294 16.1987 49.2057 16.2063C49.1237 16.2139 49.0385 16.2176 48.9502 16.2176C48.8303 16.2176 48.7073 16.1987 48.5811 16.1609C48.5496 16.1836 48.5149 16.195 48.477 16.195C48.4518 16.2101 48.4329 16.2365 48.4203 16.2743C48.4076 16.3046 48.395 16.3348 48.3824 16.3651C48.3698 16.3877 48.3509 16.4104 48.3256 16.4331C48.3067 16.4482 48.2783 16.452 48.2405 16.4444C48.2278 16.5352 48.1963 16.607 48.1458 16.6599C48.0954 16.7128 48.0701 16.7922 48.0701 16.8981C48.0007 16.9434 47.9439 17.0001 47.8998 17.0682C47.8556 17.1362 47.8115 17.2081 47.7673 17.2837C47.7231 17.3593 47.6758 17.4311 47.6253 17.4991C47.5812 17.5672 47.5244 17.6201 47.455 17.6579C47.4235 17.7033 47.414 17.7751 47.4266 17.8734C47.3572 17.9414 47.2721 18.0019 47.1711 18.0548C47.0702 18.1078 46.9755 18.1342 46.8872 18.1342C46.7043 18.1342 46.5781 18.017 46.5087 17.7827C46.5087 17.707 46.515 17.6277 46.5276 17.5445C46.5339 17.4538 46.5465 17.3706 46.5655 17.295C46.5844 17.2118 46.6128 17.14 46.6506 17.0795C46.6885 17.0115 46.7421 16.9623 46.8115 16.9321C46.8115 16.8641 46.7926 16.8187 46.7547 16.796C46.7169 16.7658 46.7011 16.7166 46.7074 16.6486C46.8778 16.5503 47.026 16.4218 47.1522 16.263C47.2784 16.1042 47.3919 15.9379 47.4929 15.764C47.6001 15.5826 47.7074 15.4011 47.8146 15.2196C47.9219 15.0382 48.0417 14.8756 48.1742 14.732V14.4938C48.3635 14.2519 48.4865 13.9797 48.5433 13.6773C48.6127 13.6622 48.6568 13.6244 48.6758 13.5639C48.701 13.5034 48.7136 13.4316 48.7136 13.3484C48.7452 13.3484 48.7641 13.3333 48.7704 13.3031C48.783 13.2653 48.8114 13.2539 48.8556 13.269C48.9123 13.0876 48.9754 12.9213 49.0448 12.7701C49.1142 12.6188 49.1836 12.4676 49.253 12.3164C49.3224 12.1577 49.3824 11.9951 49.4328 11.8288C49.4896 11.6624 49.5306 11.4772 49.5558 11.2731C49.6442 11.2655 49.6915 11.2164 49.6978 11.1256C49.7104 11.0274 49.723 10.9404 49.7356 10.8648C49.8303 10.759 49.8997 10.6342 49.9438 10.4906C49.9943 10.3469 50.0385 10.1995 50.0763 10.0483C50.1142 9.88951 50.1552 9.73452 50.1993 9.58331C50.2498 9.42454 50.3192 9.28467 50.4075 9.1637V9.12968C50.4075 9.09188 50.3949 9.0692 50.3697 9.06164C50.3444 9.04651 50.3318 9.02005 50.3318 8.98225C50.3381 8.97469 50.3413 8.96713 50.3413 8.95957C50.417 8.92177 50.4738 8.86128 50.5116 8.77812C50.5495 8.68739 50.6063 8.62313 50.682 8.58533C50.8145 8.71385 50.9312 8.79324 51.0321 8.82348C51.1331 8.84616 51.2655 8.86506 51.4296 8.88018C51.5116 8.98603 51.5557 9.11456 51.5621 9.26577C51.5747 9.40942 51.5968 9.55307 51.6283 9.69672C51.6788 9.93865 51.7324 10.1768 51.7892 10.4112C51.8523 10.638 51.8996 10.8724 51.9311 11.1143C51.95 11.258 51.9847 11.394 52.0352 11.5226C52.0857 11.6511 52.1204 11.7834 52.1393 11.9195C52.1519 12.0253 52.1519 12.1463 52.1393 12.2824C52.1267 12.4109 52.1393 12.5243 52.1772 12.6226L52.2434 12.8041C52.2749 12.8872 52.3002 12.9742 52.3191 13.0649C52.3443 13.1556 52.3664 13.2464 52.3854 13.3371C52.4358 13.5639 52.48 13.8096 52.5178 14.0742C52.562 14.3313 52.6282 14.5657 52.7166 14.7774C52.7481 14.853 52.7954 14.9059 52.8585 14.9361C52.9279 14.9664 53.0036 14.9891 53.0856 15.0042C53.1676 15.0117 53.2465 15.0155 53.3222 15.0155C53.4042 15.008 53.4736 15.0042 53.5304 15.0042H53.625C53.6629 15.0042 53.7007 15.0117 53.7386 15.0269C53.7638 15.0873 53.7764 15.1403 53.7764 15.1856C53.7764 15.2764 53.7512 15.3482 53.7007 15.4011C53.6503 15.454 53.625 15.5145 53.625 15.5826C53.625 15.6204 53.6377 15.6619 53.6629 15.7073C53.6377 15.6997 53.5998 15.696 53.5493 15.696C53.4042 15.696 53.2623 15.7262 53.1235 15.7867C53.174 15.9152 53.2402 16.0248 53.3222 16.1156C53.4105 16.1987 53.502 16.2781 53.5966 16.3537C53.6597 16.2932 53.726 16.263 53.7954 16.263C53.8711 16.263 53.9405 16.2857 54.0036 16.331C54.073 16.3688 54.1455 16.3877 54.2212 16.3877C54.278 16.3877 54.319 16.3764 54.3442 16.3537C54.3947 16.4218 54.4357 16.4936 54.4673 16.5692C54.4988 16.6372 54.5398 16.7015 54.5903 16.762ZM51.6283 14.9475C51.6157 14.8189 51.5936 14.7282 51.5621 14.6753C51.5368 14.6148 51.5147 14.543 51.4958 14.4598C51.4706 14.354 51.4516 14.2406 51.439 14.1196C51.4327 13.9986 51.4201 13.8814 51.4012 13.768C51.357 13.511 51.3065 13.2539 51.2498 12.9969C51.1993 12.7398 51.1331 12.4903 51.051 12.2484C51.0763 12.203 51.0889 12.1614 51.0889 12.1236V12.0896C51.0321 12.014 50.9911 11.9233 50.9659 11.8174C50.9406 11.704 50.9154 11.5944 50.8902 11.4886C50.8712 11.3751 50.8428 11.2731 50.805 11.1824C50.7734 11.0841 50.7198 11.0047 50.6441 10.9442C50.6252 10.9896 50.6157 11.0425 50.6157 11.103C50.6157 11.1559 50.6189 11.205 50.6252 11.2504C50.6378 11.2958 50.6441 11.3449 50.6441 11.3978C50.581 11.4356 50.5337 11.4961 50.5022 11.5793C50.4769 11.6549 50.4328 11.7154 50.3697 11.7607C50.3192 12.0027 50.2467 12.2333 50.152 12.4525C50.0574 12.6642 49.9565 12.8759 49.8492 13.0876C49.7483 13.2993 49.6505 13.5148 49.5558 13.734C49.4612 13.9457 49.3855 14.1687 49.3287 14.4031C49.2467 14.4712 49.1899 14.5581 49.1584 14.664C49.1332 14.7698 49.1205 14.8756 49.1205 14.9815C49.1773 15.0193 49.2404 15.042 49.3098 15.0495C49.3855 15.0495 49.4581 15.0495 49.5275 15.0495C49.5969 15.0495 49.6631 15.0571 49.7262 15.0722C49.7893 15.0873 49.8461 15.1251 49.8965 15.1856C49.9785 15.1554 50.0669 15.1365 50.1615 15.1289C50.2624 15.1138 50.3444 15.0798 50.4075 15.0269C50.5337 15.0798 50.6694 15.1062 50.8145 15.1062C50.8902 15.1062 50.9627 15.0987 51.0321 15.0836C51.1078 15.0684 51.1804 15.0495 51.2498 15.0269C51.3065 15.042 51.3507 15.0684 51.3823 15.1062C51.4138 15.1365 51.4611 15.1478 51.5242 15.1403C51.5557 15.11 51.5747 15.0798 51.581 15.0495C51.5873 15.0117 51.6031 14.9777 51.6283 14.9475Z" stroke="url(#paint10_linear_1102_1178)"/>
<path d="M62 17.0115C62 17.072 61.9779 17.1211 61.9338 17.1589C61.8896 17.1967 61.8391 17.2345 61.7823 17.2723L61.612 17.3744C61.5552 17.4046 61.5174 17.4462 61.4984 17.4991C61.4291 17.4765 61.3597 17.4613 61.2903 17.4538C61.2272 17.4462 61.1641 17.4424 61.101 17.4424C61.019 17.4424 60.9338 17.4538 60.8455 17.4765C60.7572 17.4916 60.6878 17.5407 60.6373 17.6239C60.6057 17.6088 60.5774 17.6012 60.5521 17.6012H60.4764C60.3818 17.6012 60.284 17.6088 60.1831 17.6239C60.0884 17.6466 59.9938 17.6579 59.8992 17.6579C59.8487 17.6579 59.7982 17.6541 59.7477 17.6466C59.7036 17.639 59.6626 17.6163 59.6247 17.5785C59.5679 17.6012 59.508 17.6125 59.4449 17.6125C59.3629 17.6125 59.284 17.5974 59.2083 17.5672C59.1326 17.5369 59.0569 17.5029 58.9812 17.4651C58.9118 17.4198 58.8393 17.3782 58.7636 17.3404C58.6879 17.3026 58.6122 17.2723 58.5365 17.2496L58.4702 17.0909C58.3693 17.0682 58.2746 17.0342 58.1863 16.9888C58.1043 16.9359 58.0223 16.8792 57.9403 16.8187C57.8583 16.7582 57.7762 16.7015 57.6942 16.6486C57.6185 16.5881 57.5397 16.5465 57.4576 16.5238C57.4261 16.4936 57.3977 16.4671 57.3725 16.4444C57.3472 16.4142 57.3283 16.3726 57.3157 16.3197C57.2337 16.297 57.158 16.2668 57.0886 16.229L56.8899 16.1042C56.8268 16.0589 56.7542 16.0211 56.6722 15.9908C56.5965 15.953 56.505 15.9303 56.3978 15.9228C56.3599 15.8547 56.3063 15.7905 56.2369 15.73C56.1675 15.6695 56.0981 15.6393 56.0287 15.6393C55.9845 15.6393 55.9498 15.6506 55.9246 15.6733V15.73C55.9246 15.8207 55.9467 15.9114 55.9908 16.0022C56.035 16.0929 56.0918 16.1571 56.1612 16.195C56.1549 16.2101 56.1517 16.2328 56.1517 16.263C56.1517 16.3084 56.158 16.3537 56.1706 16.3991C56.1896 16.4444 56.2211 16.4747 56.2653 16.4898C56.24 16.573 56.2085 16.6599 56.1706 16.7506C56.1328 16.8338 56.0855 16.9132 56.0287 16.9888C55.9719 17.0644 55.9088 17.1287 55.8394 17.1816C55.7763 17.227 55.7038 17.2496 55.6218 17.2496C55.5965 17.2648 55.5776 17.2874 55.565 17.3177C55.5587 17.3479 55.5524 17.3819 55.5461 17.4198C55.5461 17.45 55.5398 17.4802 55.5271 17.5105C55.5208 17.5407 55.5082 17.5634 55.4893 17.5785C55.4641 17.5861 55.4294 17.5899 55.3852 17.5899C55.3221 17.5899 55.2685 17.5785 55.2243 17.5558C55.1802 17.5332 55.1328 17.5029 55.0824 17.4651V17.4198C55.0824 17.329 55.0666 17.2572 55.0351 17.2043C55.0098 17.1514 54.9783 17.1022 54.9404 17.0568C54.9089 17.0039 54.8773 16.951 54.8458 16.8981C54.8206 16.8452 54.8079 16.7733 54.8079 16.6826C54.789 16.6977 54.7669 16.7091 54.7417 16.7166C54.7228 16.7242 54.7102 16.7393 54.7038 16.762C54.6912 16.6864 54.6849 16.6221 54.6849 16.5692C54.6849 16.418 54.7038 16.2743 54.7417 16.1382C54.7859 16.0022 54.8079 15.8585 54.8079 15.7073V15.5372C54.8079 15.3633 54.8048 15.1932 54.7985 15.0269C54.7922 14.8605 54.789 14.6942 54.789 14.5279C54.789 14.3842 54.7922 14.2443 54.7985 14.1083C54.8048 13.9646 54.8174 13.821 54.8363 13.6773C54.9057 13.1783 54.9625 12.6831 55.0067 12.1917C55.0571 11.6927 55.136 11.1975 55.2432 10.706C55.2369 10.6682 55.2275 10.6304 55.2149 10.5926C55.2085 10.5548 55.2054 10.517 55.2054 10.4792C55.2054 10.449 55.2085 10.4301 55.2149 10.4225C55.2401 10.2713 55.2969 10.1466 55.3852 10.0483C55.4735 9.94243 55.5871 9.88951 55.7259 9.88951H55.7543C55.83 9.92731 55.8867 9.98401 55.9246 10.0596C55.9688 10.1277 56.035 10.1541 56.1233 10.139C56.1233 10.1541 56.1202 10.1692 56.1139 10.1844C56.1139 10.1995 56.1139 10.2146 56.1139 10.2297C56.1139 10.3129 56.1328 10.3734 56.1706 10.4112C56.2085 10.449 56.2527 10.4906 56.3031 10.5359C56.2716 10.6115 56.2495 10.6985 56.2369 10.7968C56.2306 10.8951 56.2243 10.9933 56.218 11.0916C56.2117 11.1899 56.199 11.2844 56.1801 11.3751C56.1675 11.4659 56.1391 11.5415 56.0949 11.602C56.1202 11.6776 56.1359 11.7532 56.1423 11.8288C56.1486 11.9044 56.1517 11.9838 56.1517 12.0669C56.1517 12.1501 56.1486 12.237 56.1423 12.3278C56.1359 12.4109 56.1328 12.4979 56.1328 12.5886C56.1328 12.6718 56.1423 12.7474 56.1612 12.8154C56.3 12.8154 56.3788 12.736 56.3978 12.5773C56.5618 12.5243 56.7069 12.4525 56.8331 12.3618C56.9656 12.2635 57.0917 12.1614 57.2116 12.0556C57.3315 11.9497 57.4482 11.8401 57.5617 11.7267C57.6816 11.6133 57.8141 11.515 57.9592 11.4318V11.4092C57.9592 11.3714 57.9687 11.3487 57.9876 11.3411C58.0065 11.326 58.0097 11.292 57.9971 11.2391C58.0917 11.2013 58.1705 11.1521 58.2336 11.0916C58.303 11.0236 58.3661 10.9518 58.4229 10.8762L58.6027 10.638C58.6658 10.5548 58.7352 10.483 58.8109 10.4225C58.8614 10.294 58.9055 10.1579 58.9434 10.0143C58.9875 9.87061 59.0443 9.7383 59.1137 9.61733C59.2336 9.61733 59.3629 9.62867 59.5017 9.65135C59.6468 9.67404 59.7698 9.72696 59.8708 9.81012C59.8582 9.87061 59.8802 9.91219 59.937 9.93487C59.8676 10.2524 59.7635 10.5397 59.6247 10.7968C59.4859 11.0463 59.3061 11.258 59.0853 11.4318C59.0538 11.515 59.0128 11.5868 58.9623 11.6473C58.9118 11.7078 58.8614 11.7683 58.8109 11.8288C58.7604 11.8817 58.7099 11.9384 58.6595 11.9989C58.609 12.0594 58.568 12.1312 58.5365 12.2144C58.4608 12.2295 58.3945 12.2559 58.3377 12.2937C58.2873 12.3315 58.2368 12.3769 58.1863 12.4298C58.1422 12.4752 58.0917 12.5206 58.0349 12.5659C57.9844 12.6037 57.9277 12.634 57.8646 12.6566C57.8141 12.7323 57.7542 12.7965 57.6848 12.8494C57.6217 12.9024 57.5554 12.9553 57.486 13.0082C57.4229 13.0536 57.363 13.1065 57.3062 13.167C57.2495 13.2199 57.2084 13.2917 57.1832 13.3825H56.9372C56.8678 13.5261 56.7763 13.6471 56.6627 13.7454C56.5555 13.8361 56.4451 13.923 56.3315 14.0062C56.3504 14.0969 56.3851 14.1725 56.4356 14.233C56.4861 14.2859 56.5397 14.3351 56.5965 14.3804C56.6596 14.4258 56.7195 14.4749 56.7763 14.5279C56.8394 14.5732 56.893 14.6299 56.9372 14.698C57.2021 14.8189 57.4576 14.9588 57.7037 15.1176C57.9497 15.2688 58.1832 15.454 58.404 15.6733C58.4166 15.6657 58.4324 15.6619 58.4513 15.6619C58.5018 15.6619 58.5428 15.6808 58.5743 15.7186C58.6059 15.7489 58.65 15.7602 58.7068 15.7527C58.732 15.8283 58.7667 15.8812 58.8109 15.9114C58.855 15.9341 58.8992 15.953 58.9434 15.9681C58.9938 15.9833 59.0412 16.0059 59.0853 16.0362C59.1295 16.0664 59.161 16.1193 59.18 16.195C59.2746 16.2025 59.3598 16.2252 59.4355 16.263C59.5175 16.3008 59.59 16.3613 59.6531 16.4444H59.7667C59.9686 16.4444 60.1641 16.4671 60.3534 16.5125C60.5427 16.5579 60.7351 16.5805 60.9307 16.5805C61.0316 16.5805 61.1294 16.573 61.224 16.5579C61.3186 16.5352 61.4101 16.4974 61.4984 16.4444C61.53 16.4671 61.5647 16.4898 61.6025 16.5125C61.6404 16.5352 61.6814 16.5465 61.7256 16.5465C61.7571 16.5465 61.8044 16.539 61.8675 16.5238C61.8738 16.607 61.8959 16.6864 61.9338 16.762C61.9779 16.8376 62 16.9208 62 17.0115Z" stroke="url(#paint11_linear_1102_1178)"/>
<path d="M4.66894 20.0783C1.90027 13.9954 -1.97587 1.66359 4.66894 1L20.5889 26.7143L4.66894 20.0783Z" stroke="url(#paint12_linear_1102_1178)"/>
<defs>
<linearGradient id="paint0_linear_1102_1178" x1="1" y1="13.8571" x2="62" y2="13.8571" gradientUnits="userSpaceOnUse">
<stop stop-color="#FE9431"/>
<stop offset="0.175" stop-color="#673BB7"/>
</linearGradient>
<linearGradient id="paint1_linear_1102_1178" x1="1" y1="13.8571" x2="62" y2="13.8571" gradientUnits="userSpaceOnUse">
<stop stop-color="#FE9431"/>
<stop offset="0.175" stop-color="#673BB7"/>
</linearGradient>
<linearGradient id="paint2_linear_1102_1178" x1="1" y1="13.8571" x2="62" y2="13.8571" gradientUnits="userSpaceOnUse">
<stop stop-color="#FE9431"/>
<stop offset="0.175" stop-color="#673BB7"/>
</linearGradient>
<linearGradient id="paint3_linear_1102_1178" x1="1" y1="13.8571" x2="62" y2="13.8571" gradientUnits="userSpaceOnUse">
<stop stop-color="#FE9431"/>
<stop offset="0.175" stop-color="#673BB7"/>
</linearGradient>
<linearGradient id="paint4_linear_1102_1178" x1="1" y1="13.8571" x2="62" y2="13.8571" gradientUnits="userSpaceOnUse">
<stop stop-color="#FE9431"/>
<stop offset="0.175" stop-color="#673BB7"/>
</linearGradient>
<linearGradient id="paint5_linear_1102_1178" x1="1" y1="13.8571" x2="62" y2="13.8571" gradientUnits="userSpaceOnUse">
<stop stop-color="#FE9431"/>
<stop offset="0.175" stop-color="#673BB7"/>
</linearGradient>
<linearGradient id="paint6_linear_1102_1178" x1="10.7944" y1="1" x2="10.7944" y2="26.7143" gradientUnits="userSpaceOnUse">
<stop offset="0.305" stop-color="#0F172A"/>
<stop offset="0.79" stop-color="#E50202"/>
</linearGradient>
<linearGradient id="paint7_linear_1102_1178" x1="10.7944" y1="1" x2="10.7944" y2="26.7143" gradientUnits="userSpaceOnUse">
<stop offset="0.305" stop-color="#0F172A"/>
<stop offset="0.79" stop-color="#E50202"/>
</linearGradient>
<linearGradient id="paint8_linear_1102_1178" x1="10.7944" y1="1" x2="10.7944" y2="26.7143" gradientUnits="userSpaceOnUse">
<stop offset="0.305" stop-color="#0F172A"/>
<stop offset="0.79" stop-color="#E50202"/>
</linearGradient>
<linearGradient id="paint9_linear_1102_1178" x1="10.7944" y1="1" x2="10.7944" y2="26.7143" gradientUnits="userSpaceOnUse">
<stop offset="0.305" stop-color="#0F172A"/>
<stop offset="0.79" stop-color="#E50202"/>
</linearGradient>
<linearGradient id="paint10_linear_1102_1178" x1="10.7944" y1="1" x2="10.7944" y2="26.7143" gradientUnits="userSpaceOnUse">
<stop offset="0.305" stop-color="#0F172A"/>
<stop offset="0.79" stop-color="#E50202"/>
</linearGradient>
<linearGradient id="paint11_linear_1102_1178" x1="10.7944" y1="1" x2="10.7944" y2="26.7143" gradientUnits="userSpaceOnUse">
<stop offset="0.305" stop-color="#0F172A"/>
<stop offset="0.79" stop-color="#E50202"/>
</linearGradient>
<linearGradient id="paint12_linear_1102_1178" x1="10.7944" y1="1" x2="10.7944" y2="26.7143" gradientUnits="userSpaceOnUse">
<stop offset="0.305" stop-color="#0F172A"/>
<stop offset="0.79" stop-color="#E50202"/>
</linearGradient>
</defs>
</svg>
